<svg width="435" height="435" viewBox="0 0 435 435" fill="none" xmlns="http://www.w3.org/2000/svg">
<g style="mix-blend-mode:overlay">
<mask id="mask0_2501_2" style="mask-type:alpha" maskUnits="userSpaceOnUse" x="0" y="0" width="435" height="435">
<path fill-rule="evenodd" clip-rule="evenodd" d="M54.2458 44.0764C49.4857 18.9781 27.435 0 0.951681 0C0.426082 0 0 0.426083 0 0.951681C0 27.435 18.9781 49.4857 44.0764 54.2458C18.9781 59.006 0 81.0567 0 107.54C0 108.066 0.426082 108.492 0.951681 108.492C27.435 108.492 49.4857 89.5136 54.2458 64.4153C59.006 89.5136 81.0567 108.492 107.54 108.492C108.066 108.492 108.492 108.066 108.492 107.54C108.492 81.0567 89.5136 59.006 64.4153 54.2458C89.5136 49.4857 108.492 27.435 108.492 0.951681C108.492 0.426083 108.066 0 107.54 0C81.0567 0 59.006 18.9781 54.2458 44.0764ZM55.2062 55.2062C55.7126 83.3516 78.4342 106.073 106.58 106.58C106.073 78.4342 83.3516 55.7126 55.2062 55.2062ZM106.58 1.912C78.4342 2.41839 55.7126 25.1401 55.2062 53.2855C83.3516 52.7791 106.073 30.0574 106.58 1.912ZM53.2855 55.2062C52.7791 83.3516 30.0574 106.073 1.912 106.58C2.41839 78.4342 25.1401 55.7126 53.2855 55.2062ZM1.912 1.912C30.0574 2.41839 52.7791 25.1401 53.2855 53.2855C25.1401 52.7791 2.41839 30.0574 1.912 1.912Z" fill="url(#paint0_radial_2501_2)"/>
<path fill-rule="evenodd" clip-rule="evenodd" d="M162.738 44.0764C157.977 18.9781 135.927 0 109.443 0C108.918 0 108.492 0.426083 108.492 0.951681C108.492 27.435 127.47 49.4857 152.568 54.2458C127.47 59.006 108.492 81.0567 108.492 107.54C108.492 108.066 108.918 108.492 109.443 108.492C135.927 108.492 157.977 89.5136 162.738 64.4153C167.498 89.5136 189.548 108.492 216.032 108.492C216.557 108.492 216.983 108.066 216.983 107.54C216.983 81.0567 198.005 59.006 172.907 54.2458C198.005 49.4857 216.983 27.435 216.983 0.951681C216.983 0.426083 216.557 0 216.032 0C189.548 0 167.498 18.9781 162.738 44.0764ZM163.698 55.2062C164.204 83.3516 186.926 106.073 215.071 106.58C214.565 78.4342 191.843 55.7126 163.698 55.2062ZM215.071 1.912C186.926 2.41839 164.204 25.1401 163.698 53.2855C191.843 52.7791 214.565 30.0574 215.071 1.912ZM161.777 55.2062C161.271 83.3516 138.549 106.073 110.404 106.58C110.91 78.4342 133.632 55.7126 161.777 55.2062ZM110.404 1.912C138.549 2.41839 161.271 25.1401 161.777 53.2855C133.632 52.7791 110.91 30.0574 110.404 1.912Z" fill="url(#paint1_radial_2501_2)"/>
<path fill-rule="evenodd" clip-rule="evenodd" d="M271.746 44.0764C266.94 18.9781 244.68 0 217.944 0C217.414 0 216.983 0.426083 216.983 0.951681C216.983 27.435 236.142 49.4857 261.48 54.2458C236.142 59.006 216.983 81.0567 216.983 107.54C216.983 108.066 217.414 108.492 217.944 108.492C244.68 108.492 266.94 89.5136 271.746 64.4153C276.551 89.5136 298.812 108.492 325.548 108.492C326.078 108.492 326.508 108.066 326.508 107.54C326.508 81.0567 307.349 59.006 282.012 54.2458C307.349 49.4857 326.508 27.435 326.508 0.951681C326.508 0.426083 326.078 0 325.548 0C298.812 0 276.551 18.9781 271.746 44.0764ZM272.715 55.2062C273.227 83.3516 296.165 106.073 324.578 106.58C324.067 78.4342 301.129 55.7126 272.715 55.2062ZM324.578 1.912C296.165 2.41839 273.227 25.1401 272.715 53.2855C301.129 52.7791 324.067 30.0574 324.578 1.912ZM270.776 55.2062C270.265 83.3516 247.327 106.073 218.914 106.58C219.425 78.4342 242.363 55.7126 270.776 55.2062ZM218.914 1.912C247.327 2.41839 270.265 25.1401 270.776 53.2855C242.363 52.7791 219.425 30.0574 218.914 1.912Z" fill="url(#paint2_radial_2501_2)"/>
<path fill-rule="evenodd" clip-rule="evenodd" d="M380.754 44.0764C375.994 18.9781 353.943 0 327.46 0C326.934 0 326.508 0.426083 326.508 0.951681C326.508 27.435 345.486 49.4857 370.585 54.2458C345.486 59.006 326.508 81.0567 326.508 107.54C326.508 108.066 326.934 108.492 327.46 108.492C353.943 108.492 375.994 89.5136 380.754 64.4153C385.514 89.5136 407.565 108.492 434.048 108.492C434.574 108.492 435 108.066 435 107.54C435 81.0567 416.022 59.006 390.924 54.2458C416.022 49.4857 435 27.435 435 0.951681C435 0.426083 434.574 0 434.048 0C407.565 0 385.514 18.9781 380.754 44.0764ZM381.714 55.2062C382.221 83.3516 404.943 106.073 433.088 106.58C432.582 78.4342 409.86 55.7126 381.714 55.2062ZM433.088 1.912C404.943 2.41839 382.221 25.1401 381.714 53.2855C409.86 52.7791 432.582 30.0574 433.088 1.912ZM379.794 55.2062C379.287 83.3516 356.566 106.073 328.42 106.58C328.927 78.4342 351.648 55.7126 379.794 55.2062ZM328.42 1.912C356.566 2.41839 379.287 25.1401 379.794 53.2855C351.648 52.7791 328.927 30.0574 328.42 1.912Z" fill="url(#paint3_radial_2501_2)"/>
<path fill-rule="evenodd" clip-rule="evenodd" d="M54.2458 173.52C49.4857 198.858 27.435 218.017 0.951681 218.017C0.426082 218.017 0 217.586 0 217.056C0 190.32 18.9781 168.06 44.0764 163.254C18.9781 158.449 0 136.188 0 109.452C0 108.922 0.426082 108.492 0.951681 108.492C27.435 108.492 49.4857 127.651 54.2458 152.988C59.006 127.651 81.0567 108.492 107.54 108.492C108.066 108.492 108.492 108.922 108.492 109.452C108.492 136.188 89.5136 158.449 64.4153 163.254C89.5136 168.06 108.492 190.32 108.492 217.056C108.492 217.586 108.066 218.017 107.54 218.017C81.0567 218.017 59.006 198.858 54.2458 173.52ZM55.2062 162.285C55.7126 133.871 78.4342 110.933 106.58 110.422C106.073 138.835 83.3516 161.773 55.2062 162.285ZM106.58 216.086C78.4342 215.575 55.7126 192.637 55.2062 164.224C83.3516 164.735 106.073 187.673 106.58 216.086ZM53.2855 162.285C52.7791 133.871 30.0574 110.933 1.912 110.422C2.41839 138.835 25.1401 161.773 53.2855 162.285ZM1.912 216.086C30.0574 215.575 52.7791 192.637 53.2855 164.224C25.1401 164.735 2.41839 187.673 1.912 216.086Z" fill="url(#paint4_radial_2501_2)"/>
<path fill-rule="evenodd" clip-rule="evenodd" d="M162.738 173.52C157.977 198.858 135.927 218.017 109.443 218.017C108.918 218.017 108.492 217.586 108.492 217.056C108.492 190.32 127.47 168.06 152.568 163.254C127.47 158.449 108.492 136.188 108.492 109.452C108.492 108.922 108.918 108.492 109.443 108.492C135.927 108.492 157.977 127.651 162.738 152.988C167.498 127.651 189.548 108.492 216.032 108.492C216.557 108.492 216.983 108.922 216.983 109.452C216.983 136.188 198.005 158.449 172.907 163.254C198.005 168.06 216.983 190.32 216.983 217.056C216.983 217.586 216.557 218.017 216.032 218.017C189.548 218.017 167.498 198.858 162.738 173.52ZM163.698 162.285C164.204 133.871 186.926 110.933 215.071 110.422C214.565 138.835 191.843 161.773 163.698 162.285ZM215.071 216.086C186.926 215.575 164.204 192.637 163.698 164.224C191.843 164.735 214.565 187.673 215.071 216.086ZM161.777 162.285C161.271 133.871 138.549 110.933 110.404 110.422C110.91 138.835 133.632 161.773 161.777 162.285ZM110.404 216.086C138.549 215.575 161.271 192.637 161.777 164.224C133.632 164.735 110.91 187.673 110.404 216.086Z" fill="url(#paint5_radial_2501_2)"/>
<path fill-rule="evenodd" clip-rule="evenodd" d="M271.746 173.52C266.94 198.858 244.68 218.017 217.944 218.017C217.414 218.017 216.983 217.586 216.983 217.056C216.983 190.32 236.142 168.06 261.48 163.254C236.142 158.449 216.983 136.188 216.983 109.452C216.983 108.922 217.414 108.492 217.944 108.492C244.68 108.492 266.94 127.651 271.746 152.988C276.551 127.651 298.812 108.492 325.548 108.492C326.078 108.492 326.508 108.922 326.508 109.452C326.508 136.188 307.349 158.449 282.012 163.254C307.349 168.06 326.508 190.32 326.508 217.056C326.508 217.586 326.078 218.017 325.548 218.017C298.812 218.017 276.551 198.858 271.746 173.52ZM272.715 162.285C273.227 133.871 296.165 110.933 324.578 110.422C324.067 138.835 301.129 161.773 272.715 162.285ZM324.578 216.086C296.165 215.575 273.227 192.637 272.715 164.224C301.129 164.735 324.067 187.673 324.578 216.086ZM270.776 162.285C270.265 133.871 247.327 110.933 218.914 110.422C219.425 138.835 242.363 161.773 270.776 162.285ZM218.914 216.086C247.327 215.575 270.265 192.637 270.776 164.224C242.363 164.735 219.425 187.673 218.914 216.086Z" fill="url(#paint6_radial_2501_2)"/>
<path fill-rule="evenodd" clip-rule="evenodd" d="M380.754 173.52C375.994 198.858 353.943 218.017 327.46 218.017C326.934 218.017 326.508 217.586 326.508 217.056C326.508 190.32 345.486 168.06 370.585 163.254C345.486 158.449 326.508 136.188 326.508 109.452C326.508 108.922 326.934 108.492 327.46 108.492C353.943 108.492 375.994 127.651 380.754 152.988C385.514 127.651 407.565 108.492 434.048 108.492C434.574 108.492 435 108.922 435 109.452C435 136.188 416.022 158.449 390.924 163.254C416.022 168.06 435 190.32 435 217.056C435 217.586 434.574 218.017 434.048 218.017C407.565 218.017 385.514 198.858 380.754 173.52ZM381.714 162.285C382.221 133.871 404.943 110.933 433.088 110.422C432.582 138.835 409.86 161.773 381.714 162.285ZM433.088 216.086C404.943 215.575 382.221 192.637 381.714 164.224C409.86 164.735 432.582 187.673 433.088 216.086ZM379.794 162.285C379.287 133.871 356.566 110.933 328.42 110.422C328.927 138.835 351.648 161.773 379.794 162.285ZM328.42 216.086C356.566 215.575 379.287 192.637 379.794 164.224C351.648 164.735 328.927 187.673 328.42 216.086Z" fill="url(#paint7_radial_2501_2)"/>
<path fill-rule="evenodd" clip-rule="evenodd" d="M54.2458 262.093C49.4857 236.995 27.435 218.017 0.951681 218.017C0.426082 218.017 0 218.443 0 218.968C0 245.452 18.9781 267.502 44.0764 272.262C18.9781 277.023 0 299.073 0 325.557C0 326.082 0.426082 326.508 0.951681 326.508C27.435 326.508 49.4857 307.53 54.2458 282.432C59.006 307.53 81.0567 326.508 107.54 326.508C108.066 326.508 108.492 326.082 108.492 325.557C108.492 299.073 89.5136 277.023 64.4153 272.262C89.5136 267.502 108.492 245.452 108.492 218.968C108.492 218.443 108.066 218.017 107.54 218.017C81.0567 218.017 59.006 236.995 54.2458 262.093ZM55.2062 273.223C55.7126 301.368 78.4342 324.09 106.58 324.596C106.073 296.451 83.3516 273.729 55.2062 273.223ZM106.58 219.929C78.4342 220.435 55.7126 243.157 55.2062 271.302C83.3516 270.796 106.073 248.074 106.58 219.929ZM53.2855 273.223C52.7791 301.368 30.0574 324.09 1.912 324.596C2.41839 296.451 25.1401 273.729 53.2855 273.223ZM1.912 219.929C30.0574 220.435 52.7791 243.157 53.2855 271.302C25.1401 270.796 2.41839 248.074 1.912 219.929Z" fill="url(#paint8_radial_2501_2)"/>
<path fill-rule="evenodd" clip-rule="evenodd" d="M162.738 262.093C157.977 236.995 135.927 218.017 109.443 218.017C108.918 218.017 108.492 218.443 108.492 218.968C108.492 245.452 127.47 267.502 152.568 272.262C127.47 277.023 108.492 299.073 108.492 325.557C108.492 326.082 108.918 326.508 109.443 326.508C135.927 326.508 157.977 307.53 162.738 282.432C167.498 307.53 189.548 326.508 216.032 326.508C216.557 326.508 216.983 326.082 216.983 325.557C216.983 299.073 198.005 277.023 172.907 272.262C198.005 267.502 216.983 245.452 216.983 218.968C216.983 218.443 216.557 218.017 216.032 218.017C189.548 218.017 167.498 236.995 162.738 262.093ZM163.698 273.223C164.204 301.368 186.926 324.09 215.071 324.596C214.565 296.451 191.843 273.729 163.698 273.223ZM215.071 219.929C186.926 220.435 164.204 243.157 163.698 271.302C191.843 270.796 214.565 248.074 215.071 219.929ZM161.777 273.223C161.271 301.368 138.549 324.09 110.404 324.596C110.91 296.451 133.632 273.729 161.777 273.223ZM110.404 219.929C138.549 220.435 161.271 243.157 161.777 271.302C133.632 270.796 110.91 248.074 110.404 219.929Z" fill="url(#paint9_radial_2501_2)"/>
<path fill-rule="evenodd" clip-rule="evenodd" d="M271.746 262.093C266.94 236.995 244.68 218.017 217.944 218.017C217.414 218.017 216.983 218.443 216.983 218.968C216.983 245.452 236.142 267.502 261.48 272.262C236.142 277.023 216.983 299.073 216.983 325.557C216.983 326.082 217.414 326.508 217.944 326.508C244.68 326.508 266.94 307.53 271.746 282.432C276.551 307.53 298.812 326.508 325.548 326.508C326.078 326.508 326.508 326.082 326.508 325.557C326.508 299.073 307.349 277.023 282.012 272.262C307.349 267.502 326.508 245.452 326.508 218.968C326.508 218.443 326.078 218.017 325.548 218.017C298.812 218.017 276.551 236.995 271.746 262.093ZM272.715 273.223C273.227 301.368 296.165 324.09 324.578 324.596C324.067 296.451 301.129 273.729 272.715 273.223ZM324.578 219.929C296.165 220.435 273.227 243.157 272.715 271.302C301.129 270.796 324.067 248.074 324.578 219.929ZM270.776 273.223C270.265 301.368 247.327 324.09 218.914 324.596C219.425 296.451 242.363 273.729 270.776 273.223ZM218.914 219.929C247.327 220.435 270.265 243.157 270.776 271.302C242.363 270.796 219.425 248.074 218.914 219.929Z" fill="url(#paint10_radial_2501_2)"/>
<path fill-rule="evenodd" clip-rule="evenodd" d="M380.754 262.093C375.994 236.995 353.943 218.017 327.46 218.017C326.934 218.017 326.508 218.443 326.508 218.968C326.508 245.452 345.486 267.502 370.585 272.262C345.486 277.023 326.508 299.073 326.508 325.557C326.508 326.082 326.934 326.508 327.46 326.508C353.943 326.508 375.994 307.53 380.754 282.432C385.514 307.53 407.565 326.508 434.048 326.508C434.574 326.508 435 326.082 435 325.557C435 299.073 416.022 277.023 390.924 272.262C416.022 267.502 435 245.452 435 218.968C435 218.443 434.574 218.017 434.048 218.017C407.565 218.017 385.514 236.995 380.754 262.093ZM381.714 273.223C382.221 301.368 404.943 324.09 433.088 324.596C432.582 296.451 409.86 273.729 381.714 273.223ZM433.088 219.929C404.943 220.435 382.221 243.157 381.714 271.302C409.86 270.796 432.582 248.074 433.088 219.929ZM379.794 273.223C379.287 301.368 356.566 324.09 328.42 324.596C328.927 296.451 351.648 273.729 379.794 273.223ZM328.42 219.929C356.566 220.435 379.287 243.157 379.794 271.302C351.648 270.796 328.927 248.074 328.42 219.929Z" fill="url(#paint11_radial_2501_2)"/>
<path fill-rule="evenodd" clip-rule="evenodd" d="M54.2458 370.585C49.4857 345.486 27.435 326.508 0.951681 326.508C0.426082 326.508 0 326.934 0 327.46C0 353.943 18.9781 375.994 44.0764 380.754C18.9781 385.514 0 407.565 0 434.048C0 434.574 0.426082 435 0.951681 435C27.435 435 49.4857 416.022 54.2458 390.924C59.006 416.022 81.0567 435 107.54 435C108.066 435 108.492 434.574 108.492 434.048C108.492 407.565 89.5136 385.514 64.4153 380.754C89.5136 375.994 108.492 353.943 108.492 327.46C108.492 326.934 108.066 326.508 107.54 326.508C81.0567 326.508 59.006 345.486 54.2458 370.585ZM55.2062 381.714C55.7126 409.86 78.4342 432.582 106.58 433.088C106.073 404.943 83.3516 382.221 55.2062 381.714ZM106.58 328.42C78.4342 328.927 55.7126 351.648 55.2062 379.794C83.3516 379.287 106.073 356.566 106.58 328.42ZM53.2855 381.714C52.7791 409.86 30.0574 432.582 1.912 433.088C2.41839 404.943 25.1401 382.221 53.2855 381.714ZM1.912 328.42C30.0574 328.927 52.7791 351.648 53.2855 379.794C25.1401 379.287 2.41839 356.566 1.912 328.42Z" fill="url(#paint12_radial_2501_2)"/>
<path fill-rule="evenodd" clip-rule="evenodd" d="M162.738 370.585C157.977 345.486 135.927 326.508 109.443 326.508C108.918 326.508 108.492 326.934 108.492 327.46C108.492 353.943 127.47 375.994 152.568 380.754C127.47 385.514 108.492 407.565 108.492 434.048C108.492 434.574 108.918 435 109.443 435C135.927 435 157.977 416.022 162.738 390.924C167.498 416.022 189.548 435 216.032 435C216.557 435 216.983 434.574 216.983 434.048C216.983 407.565 198.005 385.514 172.907 380.754C198.005 375.994 216.983 353.943 216.983 327.46C216.983 326.934 216.557 326.508 216.032 326.508C189.548 326.508 167.498 345.486 162.738 370.585ZM163.698 381.714C164.204 409.86 186.926 432.582 215.071 433.088C214.565 404.943 191.843 382.221 163.698 381.714ZM215.071 328.42C186.926 328.927 164.204 351.648 163.698 379.794C191.843 379.287 214.565 356.566 215.071 328.42ZM161.777 381.714C161.271 409.86 138.549 432.582 110.404 433.088C110.91 404.943 133.632 382.221 161.777 381.714ZM110.404 328.42C138.549 328.927 161.271 351.648 161.777 379.794C133.632 379.287 110.91 356.566 110.404 328.42Z" fill="url(#paint13_radial_2501_2)"/>
<path fill-rule="evenodd" clip-rule="evenodd" d="M271.746 370.585C266.94 345.486 244.68 326.508 217.944 326.508C217.414 326.508 216.983 326.934 216.983 327.46C216.983 353.943 236.142 375.994 261.48 380.754C236.142 385.514 216.983 407.565 216.983 434.048C216.983 434.574 217.414 435 217.944 435C244.68 435 266.94 416.022 271.746 390.924C276.551 416.022 298.812 435 325.548 435C326.078 435 326.508 434.574 326.508 434.048C326.508 407.565 307.349 385.514 282.012 380.754C307.349 375.994 326.508 353.943 326.508 327.46C326.508 326.934 326.078 326.508 325.548 326.508C298.812 326.508 276.551 345.486 271.746 370.585ZM272.715 381.714C273.227 409.86 296.165 432.582 324.578 433.088C324.067 404.943 301.129 382.221 272.715 381.714ZM324.578 328.42C296.165 328.927 273.227 351.648 272.715 379.794C301.129 379.287 324.067 356.566 324.578 328.42ZM270.776 381.714C270.265 409.86 247.327 432.582 218.914 433.088C219.425 404.943 242.363 382.221 270.776 381.714ZM218.914 328.42C247.327 328.927 270.265 351.648 270.776 379.794C242.363 379.287 219.425 356.566 218.914 328.42Z" fill="url(#paint14_radial_2501_2)"/>
<path fill-rule="evenodd" clip-rule="evenodd" d="M380.754 370.585C375.994 345.486 353.943 326.508 327.46 326.508C326.934 326.508 326.508 326.934 326.508 327.46C326.508 353.943 345.486 375.994 370.585 380.754C345.486 385.514 326.508 407.565 326.508 434.048C326.508 434.574 326.934 435 327.46 435C353.943 435 375.994 416.022 380.754 390.924C385.514 416.022 407.565 435 434.048 435C434.574 435 435 434.574 435 434.048C435 407.565 416.022 385.514 390.924 380.754C416.022 375.994 435 353.943 435 327.46C435 326.934 434.574 326.508 434.048 326.508C407.565 326.508 385.514 345.486 380.754 370.585ZM381.714 381.714C382.221 409.86 404.943 432.582 433.088 433.088C432.582 404.943 409.86 382.221 381.714 381.714ZM433.088 328.42C404.943 328.927 382.221 351.648 381.714 379.794C409.86 379.287 432.582 356.566 433.088 328.42ZM379.794 381.714C379.287 409.86 356.566 432.582 328.42 433.088C328.927 404.943 351.648 382.221 379.794 381.714ZM328.42 328.42C356.566 328.927 379.287 351.648 379.794 379.794C351.648 379.287 328.927 356.566 328.42 328.42Z" fill="url(#paint15_radial_2501_2)"/>
</mask>
<g mask="url(#mask0_2501_2)">
<rect x="9" width="402" height="438" rx="66" fill="#D9D9D9"/>
</g>
</g>
<defs>
<radialGradient id="paint0_radial_2501_2" cx="0" cy="0" r="1" gradientUnits="userSpaceOnUse" gradientTransform="translate(54.2458 54.2458) rotate(90) scale(54.2458)">
<stop stop-color="white"/>
<stop offset="1" stop-color="white" stop-opacity="0.24"/>
</radialGradient>
<radialGradient id="paint1_radial_2501_2" cx="0" cy="0" r="1" gradientUnits="userSpaceOnUse" gradientTransform="translate(162.738 54.2458) rotate(90) scale(54.2458)">
<stop stop-color="white"/>
<stop offset="1" stop-color="white" stop-opacity="0.24"/>
</radialGradient>
<radialGradient id="paint2_radial_2501_2" cx="0" cy="0" r="1" gradientUnits="userSpaceOnUse" gradientTransform="translate(271.746 54.2458) rotate(90) scale(54.2458 54.7625)">
<stop stop-color="white"/>
<stop offset="1" stop-color="white" stop-opacity="0.24"/>
</radialGradient>
<radialGradient id="paint3_radial_2501_2" cx="0" cy="0" r="1" gradientUnits="userSpaceOnUse" gradientTransform="translate(380.754 54.2458) rotate(90) scale(54.2458)">
<stop stop-color="white"/>
<stop offset="1" stop-color="white" stop-opacity="0.24"/>
</radialGradient>
<radialGradient id="paint4_radial_2501_2" cx="0" cy="0" r="1" gradientUnits="userSpaceOnUse" gradientTransform="translate(54.2458 163.254) rotate(-90) scale(54.7625 54.2458)">
<stop stop-color="white"/>
<stop offset="1" stop-color="white" stop-opacity="0.24"/>
</radialGradient>
<radialGradient id="paint5_radial_2501_2" cx="0" cy="0" r="1" gradientUnits="userSpaceOnUse" gradientTransform="translate(162.738 163.254) rotate(-90) scale(54.7625 54.2458)">
<stop stop-color="white"/>
<stop offset="1" stop-color="white" stop-opacity="0.24"/>
</radialGradient>
<radialGradient id="paint6_radial_2501_2" cx="0" cy="0" r="1" gradientUnits="userSpaceOnUse" gradientTransform="translate(271.746 163.254) rotate(-90) scale(54.7625)">
<stop stop-color="white"/>
<stop offset="1" stop-color="white" stop-opacity="0.24"/>
</radialGradient>
<radialGradient id="paint7_radial_2501_2" cx="0" cy="0" r="1" gradientUnits="userSpaceOnUse" gradientTransform="translate(380.754 163.254) rotate(-90) scale(54.7625 54.2458)">
<stop stop-color="white"/>
<stop offset="1" stop-color="white" stop-opacity="0.24"/>
</radialGradient>
<radialGradient id="paint8_radial_2501_2" cx="0" cy="0" r="1" gradientUnits="userSpaceOnUse" gradientTransform="translate(54.2458 272.262) rotate(90) scale(54.2458)">
<stop stop-color="white"/>
<stop offset="1" stop-color="white" stop-opacity="0.24"/>
</radialGradient>
<radialGradient id="paint9_radial_2501_2" cx="0" cy="0" r="1" gradientUnits="userSpaceOnUse" gradientTransform="translate(162.738 272.262) rotate(90) scale(54.2458)">
<stop stop-color="white"/>
<stop offset="1" stop-color="white" stop-opacity="0.24"/>
</radialGradient>
<radialGradient id="paint10_radial_2501_2" cx="0" cy="0" r="1" gradientUnits="userSpaceOnUse" gradientTransform="translate(271.746 272.262) rotate(90) scale(54.2458 54.7625)">
<stop stop-color="white"/>
<stop offset="1" stop-color="white" stop-opacity="0.24"/>
</radialGradient>
<radialGradient id="paint11_radial_2501_2" cx="0" cy="0" r="1" gradientUnits="userSpaceOnUse" gradientTransform="translate(380.754 272.262) rotate(90) scale(54.2458)">
<stop stop-color="white"/>
<stop offset="1" stop-color="white" stop-opacity="0.24"/>
</radialGradient>
<radialGradient id="paint12_radial_2501_2" cx="0" cy="0" r="1" gradientUnits="userSpaceOnUse" gradientTransform="translate(54.2458 380.754) rotate(90) scale(54.2458)">
<stop stop-color="white"/>
<stop offset="1" stop-color="white" stop-opacity="0.24"/>
</radialGradient>
<radialGradient id="paint13_radial_2501_2" cx="0" cy="0" r="1" gradientUnits="userSpaceOnUse" gradientTransform="translate(162.738 380.754) rotate(90) scale(54.2458)">
<stop stop-color="white"/>
<stop offset="1" stop-color="white" stop-opacity="0.24"/>
</radialGradient>
<radialGradient id="paint14_radial_2501_2" cx="0" cy="0" r="1" gradientUnits="userSpaceOnUse" gradientTransform="translate(271.746 380.754) rotate(90) scale(54.2458 54.7625)">
<stop stop-color="white"/>
<stop offset="1" stop-color="white" stop-opacity="0.24"/>
</radialGradient>
<radialGradient id="paint15_radial_2501_2" cx="0" cy="0" r="1" gradientUnits="userSpaceOnUse" gradientTransform="translate(380.754 380.754) rotate(90) scale(54.2458)">
<stop stop-color="white"/>
<stop offset="1" stop-color="white" stop-opacity="0.24"/>
</radialGradient>
</defs>
</svg>
