<svg width="402" height="438" viewBox="0 0 402 438" fill="none" xmlns="http://www.w3.org/2000/svg">
<g style="mix-blend-mode:overlay" opacity="0.2">
<mask id="mask0_2502_21" style="mask-type:alpha" maskUnits="userSpaceOnUse" x="0" y="0" width="402" height="438">
<rect width="402" height="438" rx="66" fill="#D9D9D9"/>
</mask>
<g mask="url(#mask0_2502_21)">
<path d="M28.2133 166.89C18.8556 166.828 7.50953 173.367 -2.17522 185.668C-20.4521 208.883 -41.247 220.895 -59.5238 218.784C-69.8542 217.591 -81.6079 224.363 -91.9383 237.485C-107.434 257.167 -112.728 284.053 -103.782 297.483C-102.273 299.748 -100.461 301.472 -98.4056 302.703L-90.9253 307.067C-92.9584 305.966 -94.7487 303.786 -96.3017 301.846C-105.248 288.417 -99.9536 261.53 -84.458 241.848C-74.1276 228.727 -62.374 221.955 -52.0436 223.148C-33.7667 225.258 -12.9718 213.247 5.30504 190.032C17.8952 174.04 33.3334 167.661 43.4855 173.045L36.7065 169.15C34.1878 167.65 31.3033 166.91 28.2133 166.89Z" fill="url(#paint0_linear_2502_21)" stroke="black" stroke-width="2"/>
<path d="M26.4991 196.11C27.2629 197.72 27.7458 199.731 27.7458 202.109C27.7458 211.193 21.6021 222.128 14.032 226.498C12.2269 227.54 10.5463 228.143 8.96729 228.29C11.1063 232.804 15.9294 234.007 21.5123 230.784C29.0823 226.413 35.2261 215.479 35.2261 206.395C35.2261 199.442 31.5821 195.584 26.4991 196.11Z" fill="url(#paint1_linear_2502_21)" stroke="black" stroke-width="2"/>
<path d="M-54.5369 258.241C-54.5369 267.325 -60.6807 278.245 -68.2507 282.616C-75.8207 286.986 -81.9645 283.161 -81.9645 274.077C-81.9645 264.993 -75.8207 254.073 -68.2507 249.702C-60.6807 245.332 -54.5369 249.157 -54.5369 258.241ZM35.2261 206.417C35.2261 215.501 29.0824 226.421 21.5123 230.791C13.9423 235.162 7.79855 231.336 7.79855 222.252C7.79855 213.168 13.9423 202.248 21.5123 197.878C29.0824 193.507 35.2261 197.333 35.2261 206.417ZM-52.0435 290.488C-33.7666 267.273 -12.9717 255.267 5.30513 257.378C15.6355 258.571 27.3892 251.785 37.7196 238.663C53.2152 218.981 58.5305 192.108 49.5841 178.679C40.6377 165.249 20.8007 170.324 5.30513 190.006C-12.9717 213.22 -33.7666 225.226 -52.0435 223.116C-62.3739 221.923 -74.1275 228.709 -84.4579 241.83C-99.9535 261.512 -105.269 288.385 -96.3224 301.815C-87.376 315.244 -67.5391 310.17 -52.0435 290.488Z" fill="white" stroke="black" stroke-width="2"/>
<path d="M162.858 366.363C153.5 366.301 142.154 372.841 132.469 385.142C114.192 408.356 93.3976 420.368 75.1207 418.257C64.7903 417.065 53.0367 423.837 42.7063 436.958C27.2107 456.64 21.9162 483.526 30.8625 496.956C32.3715 499.221 34.1834 500.946 36.239 502.177L43.7192 506.54C41.6861 505.439 39.8958 503.259 38.3428 501.319C29.3964 487.89 34.6909 461.004 50.1865 441.322C60.5169 428.2 72.2706 421.428 82.601 422.621C100.878 424.731 121.673 412.72 139.95 389.505C152.54 373.514 167.978 367.134 178.13 372.519L171.351 368.623C168.832 367.124 165.948 366.384 162.858 366.363Z" fill="url(#paint2_linear_2502_21)" stroke="black" stroke-width="2"/>
<path d="M161.143 395.583C161.907 397.194 162.39 399.204 162.39 401.583C162.39 410.667 156.246 421.601 148.676 425.971C146.871 427.014 145.191 427.616 143.612 427.764C145.751 432.278 150.574 433.48 156.157 430.257C163.727 425.886 169.87 414.952 169.87 405.868C169.87 398.916 166.226 395.058 161.143 395.583Z" fill="url(#paint3_linear_2502_21)" stroke="black" stroke-width="2"/>
<path d="M80.1074 457.715C80.1074 466.799 73.9636 477.718 66.3936 482.089C58.8236 486.459 52.6798 482.634 52.6798 473.55C52.6798 464.466 58.8236 453.546 66.3936 449.176C73.9636 444.805 80.1074 448.631 80.1074 457.715ZM169.87 405.89C169.87 414.974 163.727 425.894 156.157 430.264C148.587 434.635 142.443 430.81 142.443 421.726C142.443 412.642 148.587 401.722 156.157 397.351C163.727 392.981 169.87 396.806 169.87 405.89ZM82.6008 489.961C100.878 466.747 121.673 454.741 139.949 456.851C150.28 458.044 162.033 451.258 172.364 438.137C187.859 418.455 193.175 391.582 184.228 378.152C175.282 364.723 155.445 369.797 139.949 389.479C121.673 412.694 100.878 424.7 82.6008 422.589C72.2704 421.396 60.5168 428.182 50.1864 441.304C34.6908 460.986 29.3755 487.859 38.3219 501.288C47.2683 514.718 67.1052 509.643 82.6008 489.961Z" fill="white" stroke="black" stroke-width="2"/>
<path d="M79.3285 225.313C69.9708 225.25 58.6248 231.79 48.94 244.091C30.6632 267.306 9.86826 279.317 -8.40859 277.207C-18.739 276.014 -30.4926 282.786 -40.823 295.907C-56.3186 315.589 -61.6131 342.476 -52.6668 355.905C-51.1578 358.17 -49.3459 359.895 -47.2903 361.126L-39.8101 365.489C-41.8432 364.389 -43.6335 362.208 -45.1865 360.269C-54.1329 346.839 -48.8384 319.953 -33.3428 300.271C-23.0124 287.15 -11.2587 280.377 -0.928336 281.57C17.3485 283.681 38.1434 271.669 56.4203 248.455C69.0104 232.463 84.4487 226.083 94.6007 231.468L87.8218 227.572C85.3031 226.073 82.4185 225.333 79.3285 225.313Z" fill="url(#paint4_linear_2502_21)" stroke="black" stroke-width="2"/>
<path d="M77.6141 254.532C78.3778 256.143 78.8608 258.153 78.8608 260.532C78.8608 269.616 72.717 280.55 65.147 284.921C63.3419 285.963 61.6613 286.566 60.0823 286.713C62.2213 291.227 67.0444 292.43 72.6273 289.206C80.1973 284.836 86.3411 273.902 86.3411 264.818C86.3411 257.865 82.6971 254.007 77.6141 254.532Z" fill="url(#paint5_linear_2502_21)" stroke="black" stroke-width="2"/>
<path d="M-3.42166 316.664C-3.42166 325.748 -9.56544 336.668 -17.1355 341.038C-24.7055 345.409 -30.8493 341.583 -30.8493 332.499C-30.8493 323.415 -24.7055 312.496 -17.1355 308.125C-9.56544 303.755 -3.42166 307.58 -3.42166 316.664ZM86.3414 264.84C86.3414 273.924 80.1976 284.843 72.6276 289.214C65.0576 293.584 58.9138 289.759 58.9138 280.675C58.9138 271.591 65.0576 260.671 72.6276 256.301C80.1976 251.93 86.3414 255.756 86.3414 264.84ZM-0.928246 348.911C17.3486 325.696 38.1435 313.69 56.4204 315.8C66.7508 316.993 78.5044 310.207 88.8348 297.086C104.33 277.404 109.646 250.531 100.699 237.101C91.7529 223.672 71.916 228.746 56.4204 248.428C38.1435 271.643 17.3486 283.649 -0.928246 281.538C-11.2586 280.346 -23.0123 287.131 -33.3427 300.253C-48.8383 319.935 -54.1536 346.808 -45.2072 360.237C-36.2608 373.667 -16.4238 368.593 -0.928246 348.911Z" fill="white" stroke="black" stroke-width="2"/>
<path d="M213.973 424.786C204.615 424.724 193.269 431.263 183.584 443.564C165.307 466.779 144.513 478.791 126.236 476.68C115.905 475.487 104.152 482.259 93.8213 495.381C78.3257 515.063 73.0312 541.949 81.9775 555.379C83.4865 557.644 85.2984 559.368 87.354 560.599L94.8342 564.963C92.8011 563.862 91.0108 561.682 89.4578 559.742C80.5114 546.313 85.8059 519.426 101.302 499.744C111.632 486.623 123.386 479.851 133.716 481.044C151.993 483.154 172.788 471.143 191.065 447.928C203.655 431.936 219.093 425.557 229.245 430.942L222.466 427.046C219.947 425.546 217.063 424.806 213.973 424.786Z" fill="url(#paint6_linear_2502_21)" stroke="black" stroke-width="2"/>
<path d="M131.223 516.137C131.223 525.222 125.079 536.141 117.509 540.512C109.939 544.882 103.795 541.057 103.795 531.973C103.795 522.889 109.939 511.969 117.509 507.599C125.079 503.228 131.223 507.053 131.223 516.137ZM220.986 464.313C220.986 473.397 214.842 484.317 207.272 488.687C199.702 493.058 193.558 489.232 193.558 480.148C193.558 471.064 199.702 460.145 207.272 455.774C214.842 451.404 220.986 455.229 220.986 464.313ZM133.716 548.384C151.993 525.169 172.788 513.163 191.065 515.274C201.395 516.467 213.149 509.681 223.479 496.56C238.975 476.878 244.29 450.004 235.344 436.575C226.397 423.145 206.56 428.22 191.065 447.902C172.788 471.116 151.993 483.122 133.716 481.012C123.386 479.819 111.632 486.605 101.302 499.726C85.806 519.408 80.4907 546.281 89.4371 559.711C98.3835 573.14 118.22 568.066 133.716 548.384Z" fill="white" stroke="black" stroke-width="2"/>
<path d="M-99.4015 190.164C-99.4015 200.9 -106.662 213.805 -115.609 218.97C-124.555 224.135 -131.816 219.614 -131.816 208.878C-131.816 198.143 -124.555 185.238 -115.609 180.073C-106.662 174.907 -99.4015 179.428 -99.4015 190.164ZM-9.63845 138.34C-9.63845 149.075 -16.8993 161.98 -25.8457 167.145C-34.7921 172.311 -42.0529 167.79 -42.0529 157.054C-42.0529 146.318 -34.7921 133.413 -25.8457 128.248C-16.8993 123.083 -9.63845 127.604 -9.63845 138.34ZM-98.1548 225.722C-80.6726 203.516 -60.7818 192.032 -43.2996 194.051C-32.1746 195.336 -19.5168 188.028 -8.39175 173.897C8.29581 152.701 14.02 123.761 4.38541 109.298C-5.24915 94.8356 -26.612 100.3 -43.2996 121.496C-60.7818 143.702 -80.6726 155.186 -98.1548 153.167C-109.28 151.882 -121.938 159.19 -133.063 173.321C-149.75 194.517 -155.474 223.457 -145.84 237.92C-136.205 252.382 -114.842 246.918 -98.1548 225.722Z" fill="white" stroke="black" stroke-width="2"/>
<path d="M116.591 296.375C106.513 296.308 94.2942 303.386 83.8644 316.634C66.3822 338.839 46.4915 350.366 29.0093 348.347C17.8842 347.062 5.22644 354.32 -5.8986 368.45C-22.5862 389.646 -28.3119 418.583 -18.6774 433.045C-17.0474 435.492 -15.0554 437.327 -12.8334 438.656L-5.97652 442.629C-7.95422 441.332 -9.71487 439.634 -11.1971 437.409C-20.8317 422.946 -15.1059 394.01 1.58165 372.814C12.7067 358.683 25.3645 351.348 36.4895 352.633C53.9717 354.651 73.8625 343.203 91.3447 320.997C104.777 303.936 121.239 297.019 132.174 302.531L125.785 298.79C123.075 297.166 119.92 296.397 116.591 296.375Z" fill="url(#paint7_linear_2502_21)" stroke="black" stroke-width="2"/>
<path d="M115.655 325.595C116.819 327.596 117.525 330.231 117.525 333.464C117.525 344.2 110.265 357.129 101.318 362.295C98.833 363.729 96.4888 364.38 94.3833 364.398C97.0826 369.08 102.538 370.194 108.798 366.58C117.745 361.415 125.006 348.564 125.006 337.828C125.006 330.037 121.172 325.513 115.655 325.595Z" fill="url(#paint8_linear_2502_21)" stroke="black" stroke-width="2"/>
<path d="M25.8926 377.411C27.0563 379.413 27.7626 382.048 27.7626 385.281C27.7626 396.016 20.5018 408.946 11.5554 414.111C9.07032 415.546 6.7261 416.196 4.62061 416.215C7.31081 420.935 12.7551 422.101 19.0357 418.474C27.9821 413.309 35.2429 400.38 35.2429 389.644C35.2429 381.853 31.4094 377.329 25.8926 377.411Z" fill="url(#paint9_linear_2502_21)" stroke="black" stroke-width="2"/>
<path d="M35.2425 389.637C35.2425 400.373 27.9817 413.278 19.0353 418.443C10.0889 423.608 2.82811 419.087 2.82811 408.352C2.82811 397.616 10.0889 384.711 19.0353 379.546C27.9817 374.381 35.2425 378.902 35.2425 389.637ZM125.006 337.813C125.006 348.549 117.745 361.454 108.798 366.619C99.852 371.784 92.5912 367.263 92.5912 356.527C92.5912 345.792 99.852 332.887 108.798 327.721C117.745 322.556 125.006 327.077 125.006 337.813ZM36.4893 425.195C53.9715 402.99 73.8622 391.506 91.3444 393.524C102.469 394.809 115.127 387.501 126.252 373.37C142.94 352.174 148.664 323.234 139.029 308.772C129.395 294.309 108.032 299.774 91.3444 320.97C73.8622 343.175 53.9715 354.659 36.4893 352.64C25.3642 351.356 12.7064 358.664 1.5814 372.794C-15.1062 393.99 -20.8303 422.931 -11.1958 437.393C-1.56119 451.856 19.8017 446.391 36.4893 425.195Z" fill="white" stroke="black" stroke-width="2"/>
<path d="M208.847 43.293C198.769 43.226 186.551 50.3045 176.121 63.552C158.639 85.7574 138.748 97.2839 121.266 95.2652C110.141 93.9805 97.4828 101.238 86.3577 115.368C69.6702 136.564 63.9444 165.501 73.579 179.963C75.2089 182.41 77.201 184.245 79.4229 185.574L86.2798 189.548C84.3021 188.251 82.5415 186.552 81.0592 184.327C71.4247 169.864 77.1504 140.928 93.838 119.732C104.963 105.601 117.621 98.2661 128.746 99.5507C146.228 101.569 166.119 90.1208 183.601 67.9155C197.033 50.8544 213.495 43.9371 224.431 49.4486L218.041 45.7085C215.332 44.084 212.177 43.3151 208.847 43.293Z" fill="url(#paint10_linear_2502_21)" stroke="black" stroke-width="2"/>
<path d="M207.912 72.5127C209.076 74.5144 209.782 77.1496 209.782 80.3825C209.782 91.1182 202.521 104.048 193.575 109.213C191.09 110.647 188.745 111.298 186.64 111.317C189.339 115.998 194.795 117.113 201.055 113.498C210.001 108.333 217.262 95.4817 217.262 84.746C217.262 76.9552 213.429 72.4311 207.912 72.5127Z" fill="url(#paint11_linear_2502_21)" stroke="black" stroke-width="2"/>
<path d="M118.149 124.329C119.312 126.331 120.019 128.966 120.019 132.199C120.019 142.935 112.758 155.864 103.812 161.029C101.326 162.464 98.9822 163.114 96.8767 163.133C99.5669 167.853 105.011 169.019 111.292 165.393C120.238 160.227 127.499 147.298 127.499 136.562C127.499 128.772 123.666 124.247 118.149 124.329Z" fill="url(#paint12_linear_2502_21)" stroke="black" stroke-width="2"/>
<path d="M127.499 136.555C127.499 147.291 120.238 160.196 111.292 165.361C102.346 170.527 95.0847 166.006 95.0847 155.27C95.0847 144.534 102.346 131.629 111.292 126.464C120.238 121.299 127.499 125.82 127.499 136.555ZM217.262 84.731C217.262 95.4667 210.001 108.372 201.055 113.537C192.109 118.702 184.848 114.181 184.848 103.445C184.848 92.7097 192.109 79.8047 201.055 74.6395C210.001 69.4744 217.262 73.9953 217.262 84.731ZM128.746 172.113C146.228 149.908 166.119 138.424 183.601 140.442C194.726 141.727 207.384 134.419 218.509 120.289C235.196 99.0925 240.921 70.1522 231.286 55.6896C221.651 41.2271 200.289 46.6919 183.601 67.8879C166.119 90.0932 146.228 101.577 128.746 99.5584C117.621 98.2737 104.963 105.582 93.838 119.712C77.1504 140.908 71.4263 169.849 81.0608 184.311C90.6954 198.774 112.058 193.309 128.746 172.113Z" fill="white" stroke="black" stroke-width="2"/>
<path d="M343.491 242.766C333.414 242.699 321.195 249.778 310.765 263.025C293.283 285.231 273.392 296.757 255.91 294.739C244.785 293.454 232.127 300.711 221.002 314.842C204.315 336.038 198.589 364.974 208.224 379.437C209.853 381.884 211.846 383.719 214.067 385.047L220.924 389.021C218.947 387.724 217.186 386.025 215.704 383.8C206.069 369.338 211.795 340.401 228.483 319.205C239.608 305.075 252.265 297.739 263.39 299.024C280.873 301.043 300.763 289.594 318.246 267.389C331.678 250.328 348.139 243.41 359.075 248.922L352.686 245.182C349.976 243.557 346.821 242.789 343.491 242.766Z" fill="url(#paint13_linear_2502_21)" stroke="black" stroke-width="2"/>
<path d="M342.556 271.986C343.72 273.988 344.426 276.623 344.426 279.856C344.426 290.592 337.166 303.521 328.219 308.686C325.734 310.121 323.39 310.771 321.284 310.79C323.984 315.472 329.439 316.586 335.699 312.972C344.646 307.807 351.907 294.955 351.907 284.219C351.907 276.429 348.073 271.905 342.556 271.986Z" fill="url(#paint14_linear_2502_21)" stroke="black" stroke-width="2"/>
<path d="M252.793 323.802C253.957 325.804 254.663 328.439 254.663 331.672C254.663 342.408 247.402 355.337 238.456 360.502C235.971 361.937 233.627 362.587 231.521 362.606C234.211 367.327 239.656 368.492 245.936 364.866C254.883 359.701 262.144 346.771 262.144 336.036C262.144 328.245 258.31 323.721 252.793 323.802Z" fill="url(#paint15_linear_2502_21)" stroke="black" stroke-width="2"/>
<path d="M262.144 336.029C262.144 346.765 254.883 359.67 245.936 364.835C236.99 370 229.729 365.479 229.729 354.743C229.729 344.008 236.99 331.103 245.936 325.937C254.883 320.772 262.144 325.293 262.144 336.029ZM351.907 284.204C351.907 294.94 344.646 307.845 335.699 313.01C326.753 318.175 319.492 313.654 319.492 302.919C319.492 292.183 326.753 279.278 335.699 274.113C344.646 268.948 351.907 273.469 351.907 284.204ZM263.39 371.586C280.873 349.381 300.763 337.897 318.246 339.916C329.371 341.201 342.028 333.893 353.153 319.762C369.841 298.566 375.565 269.626 365.931 255.163C356.296 240.7 334.933 246.165 318.246 267.361C300.763 289.567 280.873 301.051 263.39 299.032C252.265 297.747 239.608 305.055 228.483 319.186C211.795 340.382 206.071 369.322 215.705 383.785C225.34 398.247 246.703 392.782 263.39 371.586Z" fill="white" stroke="black" stroke-width="2"/>
<path d="M261.348 105.628C251.99 105.566 240.644 112.106 230.959 124.407C212.682 147.622 191.887 159.633 173.61 157.523C163.28 156.33 151.526 163.102 141.196 176.223C125.7 195.905 120.406 222.792 129.352 236.221C130.861 238.486 132.673 240.211 134.729 241.442L142.209 245.805C140.176 244.705 138.386 242.524 136.833 240.585C127.886 227.155 133.181 200.269 148.676 180.587C159.007 167.465 170.76 160.693 181.091 161.886C199.368 163.997 220.162 151.985 238.439 128.77C251.029 112.779 266.468 106.399 276.62 111.784L269.841 107.888C267.322 106.389 264.438 105.649 261.348 105.628Z" fill="url(#paint16_linear_2502_21)" stroke="black" stroke-width="2"/>
<path d="M259.633 134.848C260.397 136.459 260.88 138.469 260.88 140.848C260.88 149.932 254.736 160.866 247.166 165.237C245.361 166.279 243.681 166.882 242.102 167.029C244.241 171.543 249.064 172.745 254.647 169.522C262.217 165.152 268.36 154.217 268.36 145.133C268.36 138.181 264.716 134.323 259.633 134.848Z" fill="url(#paint17_linear_2502_21)" stroke="black" stroke-width="2"/>
<path d="M169.87 186.664C170.634 188.275 171.117 190.286 171.117 192.664C171.117 201.748 164.973 212.682 157.403 217.053C155.598 218.095 153.917 218.698 152.338 218.845C154.477 223.359 159.301 224.562 164.883 221.339C172.453 216.968 178.597 206.034 178.597 196.95C178.597 189.997 174.953 186.139 169.87 186.664Z" fill="url(#paint18_linear_2502_21)" stroke="black" stroke-width="2"/>
<path d="M178.597 196.98C178.597 206.064 172.454 216.984 164.884 221.354C157.314 225.725 151.17 221.899 151.17 212.815C151.17 203.731 157.314 192.812 164.884 188.441C172.454 184.07 178.597 187.896 178.597 196.98ZM268.36 145.155C268.36 154.239 262.217 165.159 254.647 169.53C247.077 173.9 240.933 170.075 240.933 160.991C240.933 151.907 247.077 140.987 254.647 136.617C262.217 132.246 268.36 136.071 268.36 145.155ZM181.091 229.226C199.368 206.012 220.163 194.006 238.439 196.116C248.77 197.309 260.523 190.523 270.854 177.402C286.349 157.72 291.665 130.847 282.718 117.417C273.772 103.988 253.935 109.062 238.439 128.744C220.163 151.959 199.368 163.965 181.091 161.854C170.76 160.661 159.007 167.447 148.676 180.569C133.181 200.251 127.865 227.124 136.812 240.553C145.758 253.983 165.595 248.908 181.091 229.226Z" fill="white" stroke="black" stroke-width="2"/>
<path d="M395.992 305.102C386.634 305.04 375.288 311.579 365.604 323.88C347.327 347.095 326.532 359.107 308.255 356.996C297.925 355.803 286.171 362.575 275.841 375.697C260.345 395.379 255.05 422.265 263.997 435.695C265.506 437.96 267.318 439.684 269.373 440.915L276.854 445.279C274.82 444.178 273.03 441.998 271.477 440.058C262.531 426.629 267.825 399.742 283.321 380.06C293.651 366.939 305.405 360.167 315.735 361.36C334.012 363.47 354.807 351.459 373.084 328.244C385.674 312.252 401.112 305.873 411.264 311.257L404.485 307.362C401.967 305.862 399.082 305.122 395.992 305.102Z" fill="url(#paint19_linear_2502_21)" stroke="black" stroke-width="2"/>
<path d="M394.278 334.322C395.042 335.932 395.525 337.943 395.525 340.321C395.525 349.405 389.381 360.34 381.811 364.71C380.006 365.752 378.325 366.355 376.746 366.502C378.885 371.016 383.708 372.219 389.291 368.996C396.861 364.625 403.005 353.691 403.005 344.607C403.005 337.654 399.361 333.796 394.278 334.322Z" fill="url(#paint20_linear_2502_21)" stroke="black" stroke-width="2"/>
<path d="M304.515 386.138C305.279 387.749 305.762 389.759 305.762 392.138C305.762 401.222 299.618 412.156 292.048 416.526C290.243 417.569 288.562 418.171 286.983 418.319C289.122 422.833 293.945 424.035 299.528 420.812C307.098 416.441 313.242 405.507 313.242 396.423C313.242 389.47 309.598 385.613 304.515 386.138Z" fill="url(#paint21_linear_2502_21)" stroke="black" stroke-width="2"/>
<path d="M313.242 396.453C313.242 405.537 307.098 416.457 299.528 420.828C291.958 425.198 285.814 421.373 285.814 412.289C285.814 403.205 291.958 392.285 299.528 387.914C307.098 383.544 313.242 387.369 313.242 396.453ZM403.005 344.629C403.005 353.713 396.861 364.633 389.291 369.003C381.721 373.374 375.577 369.548 375.577 360.464C375.577 351.38 381.721 340.461 389.291 336.09C396.861 331.719 403.005 335.545 403.005 344.629ZM315.735 428.7C334.012 405.485 354.807 393.479 373.084 395.59C383.414 396.783 395.168 389.997 405.498 376.875C420.994 357.193 426.309 330.32 417.363 316.891C408.417 303.461 388.58 308.536 373.084 328.218C354.807 351.432 334.012 363.438 315.735 361.328C305.405 360.135 293.651 366.921 283.321 380.042C267.825 399.724 262.51 426.597 271.456 440.027C280.403 453.456 300.24 448.382 315.735 428.7Z" fill="white" stroke="black" stroke-width="2"/>
<path d="M151.637 -12.8089C142.28 -12.8711 130.934 -6.33164 121.249 5.96961C102.972 29.1843 82.1771 41.1958 63.9002 39.0853C53.5699 37.8924 41.8162 44.6646 31.4858 57.7859C15.9902 77.4679 10.6957 104.354 19.6421 117.784C21.1511 120.049 22.963 121.773 25.0185 123.004L32.4988 127.368C30.4657 126.267 28.6754 124.087 27.1223 122.147C18.176 108.718 23.4705 81.8314 38.9661 62.1494C49.2965 49.0281 61.0501 42.2559 71.3805 43.4488C89.6574 45.5593 110.452 33.5478 128.729 10.3331C141.319 -5.65853 156.758 -12.0382 166.91 -6.65332L160.131 -10.5493C157.612 -12.0485 154.727 -12.7884 151.637 -12.8089Z" fill="url(#paint22_linear_2502_21)" stroke="black" stroke-width="2"/>
<path d="M149.923 16.4108C150.687 18.0215 151.17 20.0321 151.17 22.4106C151.17 31.4946 145.026 42.4288 137.456 46.7993C135.651 47.8415 133.97 48.4443 132.391 48.5915C134.53 53.1056 139.353 54.3082 144.936 51.0849C152.506 46.7144 158.65 35.7802 158.65 26.6962C158.65 19.7434 155.006 15.8854 149.923 16.4108Z" fill="url(#paint23_linear_2502_21)" stroke="black" stroke-width="2"/>
<path d="M60.1603 68.2271C60.924 69.8378 61.407 71.8484 61.407 74.2269C61.407 83.3109 55.2632 94.2451 47.6932 98.6156C45.888 99.6579 44.2074 100.261 42.6284 100.408C44.7675 104.922 49.5905 106.124 55.1734 102.901C62.7434 98.5307 68.8872 87.5965 68.8872 78.5125C68.8872 71.5597 65.2433 67.7017 60.1603 68.2271Z" fill="url(#paint24_linear_2502_21)" stroke="black" stroke-width="2"/>
<path d="M68.8869 78.5426C68.8869 87.6267 62.7432 98.5463 55.1731 102.917C47.6031 107.287 41.4593 103.462 41.4593 94.3779C41.4593 85.2939 47.6031 74.3742 55.1731 70.0037C62.7432 65.6332 68.8869 69.4586 68.8869 78.5426ZM158.65 26.7182C158.65 35.8022 152.506 46.7218 144.936 51.0924C137.366 55.4629 131.222 51.6374 131.222 42.5534C131.222 33.4694 137.366 22.5498 144.936 18.1792C152.506 13.8087 158.65 17.6342 158.65 26.7182ZM71.3803 110.789C89.6572 87.5745 110.452 75.5686 128.729 77.6791C139.059 78.8719 150.813 72.086 161.143 58.9647C176.639 39.2827 181.954 12.4095 173.008 -1.02C164.062 -14.4495 144.225 -9.37507 128.729 10.3069C110.452 33.5216 89.6572 45.5275 71.3803 43.417C61.05 42.2241 49.2963 49.0101 38.9659 62.1314C23.4703 81.8134 18.155 108.687 27.1014 122.116C36.0478 135.546 55.8848 130.471 71.3803 110.789Z" fill="white" stroke="black" stroke-width="2"/>
<path d="M286.282 186.665C276.924 186.602 265.578 193.142 255.893 205.443C237.617 228.658 216.822 240.669 198.545 238.559C188.214 237.366 176.461 244.138 166.13 257.259C150.635 276.941 145.34 303.828 154.287 317.257C155.796 319.522 157.607 321.247 159.663 322.478L167.143 326.841C165.11 325.741 163.32 323.56 161.767 321.621C152.82 308.191 158.115 281.305 173.611 261.623C183.941 248.502 195.695 241.729 206.025 242.922C224.302 245.033 245.097 233.021 263.374 209.807C275.964 193.815 291.402 187.435 301.554 192.82L294.775 188.924C292.256 187.425 289.372 186.685 286.282 186.665Z" fill="url(#paint25_linear_2502_21)" stroke="black" stroke-width="2"/>
<path d="M284.568 215.884C285.331 217.495 285.814 219.505 285.814 221.884C285.814 230.968 279.671 241.902 272.101 246.273C270.295 247.315 268.615 247.918 267.036 248.065C269.175 252.579 273.998 253.782 279.581 250.558C287.151 246.188 293.295 235.254 293.295 226.17C293.295 219.217 289.651 215.359 284.568 215.884Z" fill="url(#paint26_linear_2502_21)" stroke="black" stroke-width="2"/>
<path d="M194.805 267.701C195.568 269.311 196.051 271.322 196.051 273.7C196.051 282.784 189.907 293.719 182.337 298.089C180.532 299.131 178.852 299.734 177.273 299.881C179.412 304.395 184.235 305.598 189.818 302.375C197.388 298.004 203.532 287.07 203.532 277.986C203.532 271.033 199.888 267.175 194.805 267.701Z" fill="url(#paint27_linear_2502_21)" stroke="black" stroke-width="2"/>
<path d="M203.532 278.016C203.532 287.1 197.388 298.02 189.818 302.39C182.248 306.761 176.104 302.935 176.104 293.851C176.104 284.767 182.248 273.848 189.818 269.477C197.388 265.107 203.532 268.932 203.532 278.016ZM293.295 226.192C293.295 235.276 287.151 246.195 279.581 250.566C272.011 254.936 265.867 251.111 265.867 242.027C265.867 232.943 272.011 222.023 279.581 217.653C287.151 213.282 293.295 217.108 293.295 226.192ZM206.025 310.263C224.302 287.048 245.097 275.042 263.374 277.152C273.704 278.345 285.458 271.559 295.788 258.438C311.284 238.756 316.599 211.883 307.653 198.453C298.706 185.024 278.869 190.098 263.374 209.78C245.097 232.995 224.302 245.001 206.025 242.89C195.695 241.698 183.941 248.483 173.611 261.605C158.115 281.287 152.8 308.16 161.746 321.589C170.693 335.019 190.53 329.945 206.025 310.263Z" fill="white" stroke="black" stroke-width="2"/>
<path d="M382.14 -73.8976C372.062 -73.9646 359.843 -66.8861 349.414 -53.6386C331.932 -31.4333 312.041 -19.9067 294.559 -21.9255C283.434 -23.2101 270.776 -15.9529 259.651 -1.82227C242.963 19.3737 237.237 48.3102 246.872 62.7728C248.502 65.2196 250.494 67.0546 252.716 68.383L259.573 72.3569C257.595 71.0599 255.834 69.3613 254.352 67.1363C244.718 52.6737 250.443 23.7372 267.131 2.54121C278.256 -11.5895 290.914 -18.9245 302.039 -17.6399C319.521 -15.6212 339.412 -27.0698 356.894 -49.2751C370.326 -66.3362 386.788 -73.2536 397.724 -67.742L391.334 -71.4821C388.625 -73.1067 385.47 -73.8755 382.14 -73.8976Z" fill="url(#paint28_linear_2502_21)" stroke="black" stroke-width="2"/>
<path d="M291.442 7.13838C292.605 9.14009 293.312 11.7752 293.312 15.0082C293.312 25.7439 286.051 38.6732 277.104 43.8384C274.619 45.2731 272.275 45.9233 270.17 45.9422C272.86 50.6625 278.304 51.8279 284.585 48.2019C293.531 43.0367 300.792 30.1074 300.792 19.3717C300.792 11.5809 296.958 7.05677 291.442 7.13838Z" fill="url(#paint29_linear_2502_21)" stroke="black" stroke-width="2"/>
<path d="M300.792 19.3648C300.792 30.1005 293.531 43.0055 284.585 48.1707C275.639 53.3359 268.378 48.8149 268.378 38.0792C268.378 27.3436 275.639 14.4386 284.585 9.27338C293.531 4.10821 300.792 8.62918 300.792 19.3648ZM390.555 -32.4596C390.555 -21.724 383.294 -8.81895 374.348 -3.65378C365.402 1.5114 358.141 -3.00958 358.141 -13.7452C358.141 -24.4809 365.402 -37.3859 374.348 -42.5511C383.294 -47.7163 390.555 -43.1953 390.555 -32.4596ZM302.039 54.9224C319.521 32.717 339.412 21.2331 356.894 23.2518C368.019 24.5365 380.677 17.2286 391.802 3.09788C408.489 -18.0981 414.214 -47.0384 404.579 -61.501C394.944 -75.9636 373.582 -70.4988 356.894 -49.3028C339.412 -27.0974 319.521 -15.6135 302.039 -17.6322C290.914 -18.9169 278.256 -11.6089 267.131 2.52172C250.443 23.7177 244.719 52.658 254.354 67.1206C263.988 81.5832 285.351 76.1184 302.039 54.9224Z" fill="white" stroke="black" stroke-width="2"/>
<path d="M516.784 125.576C506.707 125.509 494.488 132.587 484.058 145.835C466.576 168.04 446.685 179.567 429.203 177.548C418.078 176.263 405.42 183.52 394.295 197.651C377.608 218.847 371.882 247.784 381.516 262.246C383.146 264.693 385.138 266.528 387.36 267.856L394.217 271.83C392.24 270.533 390.479 268.835 388.997 266.61C379.362 252.147 385.088 223.211 401.776 202.015C412.901 187.884 425.558 180.549 436.683 181.834C454.166 183.852 474.056 172.404 491.539 150.198C504.971 133.137 521.432 126.22 532.368 131.731L525.979 127.991C523.269 126.367 520.114 125.598 516.784 125.576Z" fill="url(#paint30_linear_2502_21)" stroke="black" stroke-width="2"/>
<path d="M435.437 218.838C435.437 229.574 428.176 242.479 419.23 247.644C410.283 252.809 403.022 248.288 403.022 237.553C403.022 226.817 410.283 213.912 419.23 208.747C428.176 203.582 435.437 208.103 435.437 218.838ZM525.2 167.014C525.2 177.749 517.939 190.654 508.993 195.82C500.046 200.985 492.785 196.464 492.785 185.728C492.785 174.993 500.046 162.088 508.993 156.922C517.939 151.757 525.2 156.278 525.2 167.014ZM436.684 254.396C454.166 232.19 474.057 220.707 491.539 222.725C502.664 224.01 515.322 216.702 526.447 202.571C543.134 181.375 548.858 152.435 539.224 137.972C529.589 123.51 508.226 128.975 491.539 150.171C474.057 172.376 454.166 183.86 436.684 181.841C425.559 180.557 412.901 187.865 401.776 201.995C385.088 223.191 379.364 252.131 388.999 266.594C398.633 281.057 419.996 275.592 436.684 254.396Z" fill="white" stroke="black" stroke-width="2"/>
<path d="M434.641 -11.5622C425.283 -11.6244 413.937 -5.08494 404.252 7.21631C385.975 30.431 365.18 42.4425 346.903 40.332C336.573 39.1391 324.819 45.9113 314.489 59.0326C298.993 78.7146 293.699 105.601 302.645 119.031C304.154 121.296 305.966 123.02 308.022 124.251L315.502 128.615C313.469 127.514 311.679 125.334 310.126 123.394C301.179 109.964 306.474 83.0781 321.969 63.3961C332.3 50.2748 344.053 43.5026 354.384 44.6955C372.661 46.806 393.455 34.7945 411.732 11.5798C424.322 -4.41183 439.761 -10.7915 449.913 -5.40662L443.134 -9.30258C440.615 -10.8018 437.731 -11.5417 434.641 -11.5622Z" fill="url(#paint31_linear_2502_21)" stroke="black" stroke-width="2"/>
<path d="M343.163 69.4738C343.927 71.0845 344.41 73.0951 344.41 75.4736C344.41 84.5576 338.266 95.4918 330.696 99.8623C328.891 100.905 327.21 101.507 325.631 101.654C327.77 106.169 332.593 107.371 338.176 104.148C345.746 99.7774 351.89 88.8432 351.89 79.7592C351.89 72.8064 348.246 68.9484 343.163 69.4738Z" fill="url(#paint32_linear_2502_21)" stroke="black" stroke-width="2"/>
<path d="M351.89 79.7893C351.89 88.8734 345.746 99.793 338.176 104.164C330.606 108.534 324.463 104.709 324.463 95.6246C324.463 86.5406 330.606 75.6209 338.176 71.2504C345.746 66.8799 351.89 70.7053 351.89 79.7893ZM441.653 27.9649C441.653 37.0489 435.509 47.9685 427.939 52.339C420.369 56.7096 414.226 52.8841 414.226 43.8001C414.226 34.7161 420.369 23.7965 427.939 19.4259C435.509 15.0554 441.653 18.8808 441.653 27.9649ZM354.384 112.036C372.66 88.8212 393.455 76.8153 411.732 78.9257C422.063 80.1186 433.816 73.3327 444.147 60.2114C459.642 40.5294 464.957 13.6562 456.011 0.226686C447.065 -13.2028 427.228 -8.12838 411.732 11.5536C393.455 34.7683 372.66 46.7742 354.384 44.6637C344.053 43.4708 332.299 50.2568 321.969 63.3781C306.473 83.0601 301.158 109.933 310.105 123.363C319.051 136.792 338.888 131.718 354.384 112.036Z" fill="white" stroke="black" stroke-width="2"/>
<path d="M324.93 -130C315.572 -130.062 304.226 -123.522 294.542 -111.221C276.265 -88.0063 255.47 -75.9948 237.193 -78.1053C226.863 -79.2982 215.109 -72.526 204.779 -59.4047C189.283 -39.7227 183.988 -12.8363 192.935 0.593192C194.444 2.85834 196.256 4.58279 198.311 5.81379L205.791 10.1773C203.758 9.07664 201.968 6.89632 200.415 4.95667C191.469 -8.47286 196.763 -35.3592 212.259 -55.0412C222.589 -68.1625 234.343 -74.9347 244.673 -73.7418C262.95 -71.6313 283.745 -83.6429 302.022 -106.858C314.612 -122.849 330.05 -129.229 340.202 -123.844L333.423 -127.74C330.905 -129.239 328.02 -129.979 324.93 -130Z" fill="url(#paint33_linear_2502_21)" stroke="black" stroke-width="2"/>
<path d="M242.18 -38.648C242.18 -29.564 236.036 -18.6443 228.466 -14.2738C220.896 -9.90326 214.752 -13.7287 214.752 -22.8127C214.752 -31.8967 220.896 -42.8164 228.466 -47.1869C236.036 -51.5574 242.18 -47.732 242.18 -38.648ZM331.943 -90.4725C331.943 -81.3884 325.799 -70.4688 318.229 -66.0983C310.659 -61.7277 304.515 -65.5532 304.515 -74.6372C304.515 -83.7212 310.659 -94.6409 318.229 -99.0114C325.799 -103.382 331.943 -99.5565 331.943 -90.4725ZM244.673 -6.40149C262.95 -29.6162 283.745 -41.6221 302.022 -39.5116C312.352 -38.3187 324.106 -45.1046 334.436 -58.226C349.932 -77.908 355.247 -104.781 346.301 -118.211C337.354 -131.64 317.518 -126.566 302.022 -106.884C283.745 -83.669 262.95 -71.6631 244.673 -73.7736C234.343 -74.9665 222.589 -68.1806 212.259 -55.0592C196.763 -35.3772 191.448 -8.5041 200.394 4.92544C209.341 18.355 229.178 13.2805 244.673 -6.40149Z" fill="white" stroke="black" stroke-width="2"/>
<path d="M459.575 69.4738C450.217 69.4117 438.871 75.9511 429.186 88.2524C410.909 111.467 390.114 123.479 371.838 121.368C361.507 120.175 349.753 126.947 339.423 140.069C323.927 159.751 318.633 186.637 327.579 200.067C329.088 202.332 330.9 204.056 332.956 205.287L340.436 209.651C338.403 208.55 336.613 206.37 335.06 204.43C326.113 191.001 331.408 164.114 346.903 144.432C357.234 131.311 368.987 124.539 379.318 125.732C397.595 127.842 418.39 115.831 436.666 92.6159C449.257 76.6243 464.695 70.2446 474.847 75.6295L468.068 71.7335C465.549 70.2343 462.665 69.4944 459.575 69.4738Z" fill="url(#paint34_linear_2502_21)" stroke="black" stroke-width="2"/>
<path d="M368.098 150.51C368.861 152.121 369.344 154.131 369.344 156.51C369.344 165.594 363.201 176.528 355.631 180.898C353.826 181.941 352.145 182.543 350.566 182.691C352.705 187.205 357.528 188.407 363.111 185.184C370.681 180.813 376.825 169.879 376.825 160.795C376.825 153.842 373.181 149.985 368.098 150.51Z" fill="url(#paint35_linear_2502_21)" stroke="black" stroke-width="2"/>
<path d="M376.824 160.825C376.824 169.909 370.681 180.829 363.111 185.2C355.541 189.57 349.397 185.745 349.397 176.661C349.397 167.577 355.541 156.657 363.111 152.287C370.681 147.916 376.824 151.741 376.824 160.825ZM466.587 109.001C466.587 118.085 460.444 129.005 452.874 133.375C445.304 137.746 439.16 133.92 439.16 124.836C439.16 115.752 445.304 104.833 452.874 100.462C460.444 96.0915 466.587 99.9169 466.587 109.001ZM379.318 193.072C397.595 169.857 418.39 157.851 436.666 159.962C446.997 161.155 458.751 154.369 469.081 141.247C484.576 121.565 489.892 94.6923 480.945 81.2628C471.999 67.8333 452.162 72.9077 436.666 92.5897C418.39 115.804 397.595 127.81 379.318 125.7C368.987 124.507 357.234 131.293 346.903 144.414C331.408 164.096 326.093 190.969 335.039 204.399C343.985 217.828 363.822 212.754 379.318 193.072Z" fill="white" stroke="black" stroke-width="2"/>
</g>
</g>
<defs>
<linearGradient id="paint0_linear_2502_21" x1="-97.4599" y1="302.475" x2="-9.11649" y2="142.704" gradientUnits="userSpaceOnUse">
<stop stop-color="#AAAAAA"/>
<stop offset="0.13" stop-color="white"/>
<stop offset="0.48" stop-color="white"/>
<stop offset="0.55" stop-color="#999999"/>
<stop offset="0.62" stop-color="white"/>
<stop offset="0.95" stop-color="white"/>
<stop offset="1" stop-color="#808080"/>
</linearGradient>
<linearGradient id="paint1_linear_2502_21" x1="12.1837" y1="231.78" x2="31.7448" y2="196.913" gradientUnits="userSpaceOnUse">
<stop stop-color="#808080"/>
<stop offset="0.35" stop-color="white"/>
<stop offset="1" stop-color="white"/>
</linearGradient>
<linearGradient id="paint2_linear_2502_21" x1="37.1847" y1="501.949" x2="125.528" y2="342.177" gradientUnits="userSpaceOnUse">
<stop stop-color="#AAAAAA"/>
<stop offset="0.13" stop-color="white"/>
<stop offset="0.48" stop-color="white"/>
<stop offset="0.55" stop-color="#999999"/>
<stop offset="0.62" stop-color="white"/>
<stop offset="0.95" stop-color="white"/>
<stop offset="1" stop-color="#808080"/>
</linearGradient>
<linearGradient id="paint3_linear_2502_21" x1="146.828" y1="431.253" x2="166.389" y2="396.386" gradientUnits="userSpaceOnUse">
<stop stop-color="#808080"/>
<stop offset="0.35" stop-color="white"/>
<stop offset="1" stop-color="white"/>
</linearGradient>
<linearGradient id="paint4_linear_2502_21" x1="-46.3446" y1="360.898" x2="41.9987" y2="201.127" gradientUnits="userSpaceOnUse">
<stop stop-color="#AAAAAA"/>
<stop offset="0.13" stop-color="white"/>
<stop offset="0.48" stop-color="white"/>
<stop offset="0.55" stop-color="#999999"/>
<stop offset="0.62" stop-color="white"/>
<stop offset="0.95" stop-color="white"/>
<stop offset="1" stop-color="#808080"/>
</linearGradient>
<linearGradient id="paint5_linear_2502_21" x1="63.2987" y1="290.202" x2="82.8598" y2="255.336" gradientUnits="userSpaceOnUse">
<stop stop-color="#808080"/>
<stop offset="0.35" stop-color="white"/>
<stop offset="1" stop-color="white"/>
</linearGradient>
<linearGradient id="paint6_linear_2502_21" x1="88.2996" y1="560.371" x2="176.643" y2="400.6" gradientUnits="userSpaceOnUse">
<stop stop-color="#AAAAAA"/>
<stop offset="0.13" stop-color="white"/>
<stop offset="0.48" stop-color="white"/>
<stop offset="0.55" stop-color="#999999"/>
<stop offset="0.62" stop-color="white"/>
<stop offset="0.95" stop-color="white"/>
<stop offset="1" stop-color="#808080"/>
</linearGradient>
<linearGradient id="paint7_linear_2502_21" x1="-12.6369" y1="439.182" x2="80.2814" y2="271.669" gradientUnits="userSpaceOnUse">
<stop stop-color="#AAAAAA"/>
<stop offset="0.13" stop-color="white"/>
<stop offset="0.48" stop-color="white"/>
<stop offset="0.55" stop-color="#999999"/>
<stop offset="0.62" stop-color="white"/>
<stop offset="0.95" stop-color="white"/>
<stop offset="1" stop-color="#808080"/>
</linearGradient>
<linearGradient id="paint8_linear_2502_21" x1="94.2801" y1="364.202" x2="116.003" y2="326.238" gradientUnits="userSpaceOnUse">
<stop stop-color="#808080"/>
<stop offset="0.35" stop-color="white"/>
<stop offset="1" stop-color="white"/>
</linearGradient>
<linearGradient id="paint9_linear_2502_21" x1="4.93689" y1="416.729" x2="26.2863" y2="377.413" gradientUnits="userSpaceOnUse">
<stop stop-color="#808080"/>
<stop offset="0.35" stop-color="white"/>
<stop offset="1" stop-color="white"/>
</linearGradient>
<linearGradient id="paint10_linear_2502_21" x1="79.6194" y1="186.1" x2="172.538" y2="18.5866" gradientUnits="userSpaceOnUse">
<stop stop-color="#AAAAAA"/>
<stop offset="0.13" stop-color="white"/>
<stop offset="0.48" stop-color="white"/>
<stop offset="0.55" stop-color="#999999"/>
<stop offset="0.62" stop-color="white"/>
<stop offset="0.95" stop-color="white"/>
<stop offset="1" stop-color="#808080"/>
</linearGradient>
<linearGradient id="paint11_linear_2502_21" x1="186.537" y1="111.12" x2="208.259" y2="73.1565" gradientUnits="userSpaceOnUse">
<stop stop-color="#808080"/>
<stop offset="0.35" stop-color="white"/>
<stop offset="1" stop-color="white"/>
</linearGradient>
<linearGradient id="paint12_linear_2502_21" x1="97.193" y1="163.647" x2="118.542" y2="124.331" gradientUnits="userSpaceOnUse">
<stop stop-color="#808080"/>
<stop offset="0.35" stop-color="white"/>
<stop offset="1" stop-color="white"/>
</linearGradient>
<linearGradient id="paint13_linear_2502_21" x1="214.264" y1="385.573" x2="307.182" y2="218.06" gradientUnits="userSpaceOnUse">
<stop stop-color="#AAAAAA"/>
<stop offset="0.13" stop-color="white"/>
<stop offset="0.48" stop-color="white"/>
<stop offset="0.55" stop-color="#999999"/>
<stop offset="0.62" stop-color="white"/>
<stop offset="0.95" stop-color="white"/>
<stop offset="1" stop-color="#808080"/>
</linearGradient>
<linearGradient id="paint14_linear_2502_21" x1="321.181" y1="310.593" x2="342.904" y2="272.63" gradientUnits="userSpaceOnUse">
<stop stop-color="#808080"/>
<stop offset="0.35" stop-color="white"/>
<stop offset="1" stop-color="white"/>
</linearGradient>
<linearGradient id="paint15_linear_2502_21" x1="231.838" y1="363.121" x2="253.187" y2="323.805" gradientUnits="userSpaceOnUse">
<stop stop-color="#808080"/>
<stop offset="0.35" stop-color="white"/>
<stop offset="1" stop-color="white"/>
</linearGradient>
<linearGradient id="paint16_linear_2502_21" x1="135.674" y1="241.214" x2="224.018" y2="81.4426" gradientUnits="userSpaceOnUse">
<stop stop-color="#AAAAAA"/>
<stop offset="0.13" stop-color="white"/>
<stop offset="0.48" stop-color="white"/>
<stop offset="0.55" stop-color="#999999"/>
<stop offset="0.62" stop-color="white"/>
<stop offset="0.95" stop-color="white"/>
<stop offset="1" stop-color="#808080"/>
</linearGradient>
<linearGradient id="paint17_linear_2502_21" x1="245.318" y1="170.518" x2="264.879" y2="135.652" gradientUnits="userSpaceOnUse">
<stop stop-color="#808080"/>
<stop offset="0.35" stop-color="white"/>
<stop offset="1" stop-color="white"/>
</linearGradient>
<linearGradient id="paint18_linear_2502_21" x1="154.591" y1="222.343" x2="174.495" y2="187.557" gradientUnits="userSpaceOnUse">
<stop stop-color="#808080"/>
<stop offset="0.35" stop-color="white"/>
<stop offset="1" stop-color="white"/>
</linearGradient>
<linearGradient id="paint19_linear_2502_21" x1="270.319" y1="440.687" x2="358.662" y2="280.916" gradientUnits="userSpaceOnUse">
<stop stop-color="#AAAAAA"/>
<stop offset="0.13" stop-color="white"/>
<stop offset="0.48" stop-color="white"/>
<stop offset="0.55" stop-color="#999999"/>
<stop offset="0.62" stop-color="white"/>
<stop offset="0.95" stop-color="white"/>
<stop offset="1" stop-color="#808080"/>
</linearGradient>
<linearGradient id="paint20_linear_2502_21" x1="379.963" y1="369.992" x2="399.524" y2="335.125" gradientUnits="userSpaceOnUse">
<stop stop-color="#808080"/>
<stop offset="0.35" stop-color="white"/>
<stop offset="1" stop-color="white"/>
</linearGradient>
<linearGradient id="paint21_linear_2502_21" x1="289.235" y1="421.816" x2="309.14" y2="387.031" gradientUnits="userSpaceOnUse">
<stop stop-color="#808080"/>
<stop offset="0.35" stop-color="white"/>
<stop offset="1" stop-color="white"/>
</linearGradient>
<linearGradient id="paint22_linear_2502_21" x1="25.9642" y1="122.776" x2="114.308" y2="-36.9947" gradientUnits="userSpaceOnUse">
<stop stop-color="#AAAAAA"/>
<stop offset="0.13" stop-color="white"/>
<stop offset="0.48" stop-color="white"/>
<stop offset="0.55" stop-color="#999999"/>
<stop offset="0.62" stop-color="white"/>
<stop offset="0.95" stop-color="white"/>
<stop offset="1" stop-color="#808080"/>
</linearGradient>
<linearGradient id="paint23_linear_2502_21" x1="135.608" y1="52.0809" x2="155.169" y2="17.2143" gradientUnits="userSpaceOnUse">
<stop stop-color="#808080"/>
<stop offset="0.35" stop-color="white"/>
<stop offset="1" stop-color="white"/>
</linearGradient>
<linearGradient id="paint24_linear_2502_21" x1="44.8807" y1="103.905" x2="64.7853" y2="69.1199" gradientUnits="userSpaceOnUse">
<stop stop-color="#808080"/>
<stop offset="0.35" stop-color="white"/>
<stop offset="1" stop-color="white"/>
</linearGradient>
<linearGradient id="paint25_linear_2502_21" x1="160.609" y1="322.25" x2="248.952" y2="162.479" gradientUnits="userSpaceOnUse">
<stop stop-color="#AAAAAA"/>
<stop offset="0.13" stop-color="white"/>
<stop offset="0.48" stop-color="white"/>
<stop offset="0.55" stop-color="#999999"/>
<stop offset="0.62" stop-color="white"/>
<stop offset="0.95" stop-color="white"/>
<stop offset="1" stop-color="#808080"/>
</linearGradient>
<linearGradient id="paint26_linear_2502_21" x1="270.252" y1="251.554" x2="289.813" y2="216.688" gradientUnits="userSpaceOnUse">
<stop stop-color="#808080"/>
<stop offset="0.35" stop-color="white"/>
<stop offset="1" stop-color="white"/>
</linearGradient>
<linearGradient id="paint27_linear_2502_21" x1="179.525" y1="303.379" x2="199.43" y2="268.593" gradientUnits="userSpaceOnUse">
<stop stop-color="#808080"/>
<stop offset="0.35" stop-color="white"/>
<stop offset="1" stop-color="white"/>
</linearGradient>
<linearGradient id="paint28_linear_2502_21" x1="252.912" y1="68.9093" x2="345.831" y2="-98.604" gradientUnits="userSpaceOnUse">
<stop stop-color="#AAAAAA"/>
<stop offset="0.13" stop-color="white"/>
<stop offset="0.48" stop-color="white"/>
<stop offset="0.55" stop-color="#999999"/>
<stop offset="0.62" stop-color="white"/>
<stop offset="0.95" stop-color="white"/>
<stop offset="1" stop-color="#808080"/>
</linearGradient>
<linearGradient id="paint29_linear_2502_21" x1="270.486" y1="46.4566" x2="291.835" y2="7.14043" gradientUnits="userSpaceOnUse">
<stop stop-color="#808080"/>
<stop offset="0.35" stop-color="white"/>
<stop offset="1" stop-color="white"/>
</linearGradient>
<linearGradient id="paint30_linear_2502_21" x1="387.557" y1="268.383" x2="480.475" y2="100.869" gradientUnits="userSpaceOnUse">
<stop stop-color="#AAAAAA"/>
<stop offset="0.13" stop-color="white"/>
<stop offset="0.48" stop-color="white"/>
<stop offset="0.55" stop-color="#999999"/>
<stop offset="0.62" stop-color="white"/>
<stop offset="0.95" stop-color="white"/>
<stop offset="1" stop-color="#808080"/>
</linearGradient>
<linearGradient id="paint31_linear_2502_21" x1="308.967" y1="124.023" x2="397.311" y2="-35.748" gradientUnits="userSpaceOnUse">
<stop stop-color="#AAAAAA"/>
<stop offset="0.13" stop-color="white"/>
<stop offset="0.48" stop-color="white"/>
<stop offset="0.55" stop-color="#999999"/>
<stop offset="0.62" stop-color="white"/>
<stop offset="0.95" stop-color="white"/>
<stop offset="1" stop-color="#808080"/>
</linearGradient>
<linearGradient id="paint32_linear_2502_21" x1="327.884" y1="105.152" x2="347.788" y2="70.3666" gradientUnits="userSpaceOnUse">
<stop stop-color="#808080"/>
<stop offset="0.35" stop-color="white"/>
<stop offset="1" stop-color="white"/>
</linearGradient>
<linearGradient id="paint33_linear_2502_21" x1="199.257" y1="5.58572" x2="287.6" y2="-154.185" gradientUnits="userSpaceOnUse">
<stop stop-color="#AAAAAA"/>
<stop offset="0.13" stop-color="white"/>
<stop offset="0.48" stop-color="white"/>
<stop offset="0.55" stop-color="#999999"/>
<stop offset="0.62" stop-color="white"/>
<stop offset="0.95" stop-color="white"/>
<stop offset="1" stop-color="#808080"/>
</linearGradient>
<linearGradient id="paint34_linear_2502_21" x1="333.901" y1="205.059" x2="422.245" y2="45.288" gradientUnits="userSpaceOnUse">
<stop stop-color="#AAAAAA"/>
<stop offset="0.13" stop-color="white"/>
<stop offset="0.48" stop-color="white"/>
<stop offset="0.55" stop-color="#999999"/>
<stop offset="0.62" stop-color="white"/>
<stop offset="0.95" stop-color="white"/>
<stop offset="1" stop-color="#808080"/>
</linearGradient>
<linearGradient id="paint35_linear_2502_21" x1="352.818" y1="186.188" x2="372.723" y2="151.403" gradientUnits="userSpaceOnUse">
<stop stop-color="#808080"/>
<stop offset="0.35" stop-color="white"/>
<stop offset="1" stop-color="white"/>
</linearGradient>
</defs>
</svg>
