<svg width="824" height="824" viewBox="0 0 824 824" fill="none" xmlns="http://www.w3.org/2000/svg">
<rect width="824" height="824" rx="186" fill="url(#paint0_linear_2504_1350)"/>
<g style="mix-blend-mode:overlay">
<rect width="824" height="824" rx="186" fill="url(#paint1_radial_2504_1350)" fill-opacity="0.32"/>
</g>
<g style="mix-blend-mode:plus-darker" filter="url(#filter0_dddi_2504_1350)">
<rect x="48" y="48" width="728" height="728" rx="138" fill="white" fill-opacity="0.05" shape-rendering="crispEdges"/>
</g>
<path d="M518.222 283.552C514.291 351.943 555.601 422.838 616.812 452.805C658.155 473.037 682.549 517.233 676.728 561.312C670.277 610.134 636.811 646.535 589.747 655.391C561.571 660.698 536.182 652.373 512.5 637.829C445.37 596.552 378.388 596.685 311.125 637.613C276.282 658.824 239.997 663.849 202.551 644.496C147.958 616.287 129.335 544.181 162.469 491.81C173.298 474.679 187.825 462.158 205.669 453.203C269.052 421.379 309.5 351.993 304.806 282.01C301.937 239.174 320.014 206.62 354.856 184.1C388.421 162.408 424.723 161.927 460.593 179.407C490.859 194.133 524.175 233.171 518.222 283.585V283.552ZM258.654 454.48C209.351 455.011 171.308 484.231 160.794 524.562C150.114 565.491 168.323 609.156 205.437 630.317C241.424 650.847 276.349 645.789 310.329 624.877C318.073 620.118 325.436 614.529 333.629 610.748C364.557 596.502 397.443 594.214 430.842 596.585C460.212 598.675 487.774 606.071 512.036 623.998C519.664 629.637 528.868 633.484 537.824 636.917C588.652 656.386 646.015 627.812 661.422 575.657C677.11 522.589 644.805 468.327 590.692 456.702C559.233 449.936 532.202 460.351 506.281 477.05C496.198 483.551 485.17 489.156 473.827 493.004C443.728 503.236 412.534 503.551 381.307 500.052C356.581 497.282 333.695 489.588 312.999 474.894C294.972 462.092 274.558 454.496 258.637 454.496L258.654 454.48ZM411.406 404.513C390.461 422.507 367.542 462.473 366.265 483.369C396.796 491.428 427.21 491.777 457.758 482.937C451.174 454.132 430.511 419.306 411.406 404.513ZM571.322 443.336C571.82 442.573 572.318 441.827 572.798 441.064C572.185 440.235 571.704 439.289 570.958 438.609C554.142 423.485 541.207 405.309 530.295 385.691C513.694 355.807 502.417 324.613 505.999 289.406C507.011 279.406 505.966 268.958 504.391 258.942C496.132 206.106 444.988 170.766 392.451 181.181C341.141 191.347 307.841 244.58 320.213 296.288C328.289 330.053 351.489 350.053 380.71 365.509C392.75 371.877 404.607 379.538 414.54 388.759C439.001 411.478 455.287 439.936 467.409 470.848C468.553 473.767 469.847 476.619 471.058 479.505C471.97 479.306 472.882 479.107 473.794 478.891C473.545 476.387 473.91 473.617 472.965 471.395C468.52 461.014 464.209 450.516 458.952 440.55C439.582 403.883 414.126 373.087 375.32 355.376C369.848 352.872 364.74 349.406 359.848 345.857C319.135 316.189 311.025 260.086 341.456 219.605C370.959 180.368 426.431 173.271 465.983 203.934C493.363 225.161 502.069 254.298 500.195 287.565C496.779 348.245 524.623 395.857 563.512 438.775C565.435 440.898 568.653 441.827 571.256 443.319L571.322 443.336ZM410.312 324.199C437.393 324.613 459.466 303.204 459.847 276.139C460.245 249.041 439.018 227.101 411.821 226.504C385.038 225.907 362.584 247.715 362.285 274.647C361.97 301.927 383.164 323.801 410.312 324.215V324.199ZM250.462 440.881L251.589 442.905C254.326 441.545 257.709 440.815 259.715 438.742C289.068 408.493 309.433 373.071 319.864 332.142C320.528 329.555 319.317 326.504 318.985 323.668C318.256 323.668 317.543 323.685 316.813 323.701C306.299 369.356 284.11 408.361 250.478 440.881H250.462ZM351.605 479.19C363.745 448.079 380.08 419.571 402.6 393.966C389.383 392.192 345.768 465.591 351.605 479.19Z" fill="url(#paint2_linear_2504_1350)"/>
<path d="M418.039 590.798C372.948 590.947 337.658 598.575 305.685 620.317C277.161 639.719 246.034 644.346 213.961 628.708C168.737 606.668 150.18 551.926 172.833 508.592C196.249 463.8 251.025 447.233 295.702 471.462C310.693 479.604 324.889 490.068 340.809 495.475C390.461 512.324 440.626 512.075 489.747 492.755C502.682 487.664 514.191 479.007 526.447 472.141C559.879 453.402 598.536 456.735 627.839 480.798C656.595 504.397 666.977 541.096 655.103 577.116C643.743 611.577 611.355 636.121 574.042 637.68C553.263 638.542 534.059 632.091 517.259 620.234C485.12 597.547 448.902 590.781 418.056 590.781L418.039 590.798ZM204.342 550.085C204.326 576.967 226.266 598.94 253.214 598.973C280.096 599.007 302.252 576.851 302.103 550.068C301.954 523.02 279.98 501.047 253.198 501.196C226.083 501.329 204.375 523.07 204.342 550.085ZM618.934 550.085C618.934 523.153 597.043 501.246 570.062 501.213C543.213 501.179 521.339 523.087 521.19 550.134C521.04 576.917 543.097 598.94 570.095 598.973C596.977 599.007 618.934 577.033 618.934 550.085Z" fill="url(#paint3_linear_2504_1350)"/>
<path d="M454.325 275.443C454.276 299.389 435.238 318.61 411.407 318.776C387.278 318.958 367.775 299.572 367.659 275.327C367.56 251.761 387.161 231.993 410.677 231.944C434.956 231.894 454.375 251.247 454.309 275.426L454.325 275.443ZM377.294 275.691C377.394 294 393.148 309.605 411.208 309.29C429.234 308.975 444.375 293.652 444.359 275.774C444.325 257.449 428.67 241.927 410.478 242.209C392.485 242.491 377.195 257.914 377.294 275.691Z" fill="#8C65FB"/>
<path d="M252.916 593.551C228.919 593.385 209.516 573.484 209.848 549.388C210.163 525.607 229.649 506.619 253.529 506.801C277.36 506.984 296.663 526.304 296.713 550.018C296.763 573.915 276.846 593.733 252.916 593.551ZM253.811 516.752C235.188 516.669 220.146 531.66 220.097 550.333C220.047 568.178 235.403 583.534 253.397 583.65C271.688 583.766 287.211 568.227 287.095 549.902C286.979 531.71 272.02 516.818 253.811 516.752Z" fill="url(#paint4_linear_2504_1350)"/>
<path d="M570.162 506.801C593.876 506.718 613.296 526.005 613.462 549.786C613.611 573.816 593.893 593.683 569.979 593.584C546.381 593.484 526.812 574.015 526.613 550.416C526.398 526.469 545.95 506.884 570.162 506.785V506.801ZM603.528 549.819C603.346 531.61 588.387 516.751 570.212 516.735C551.555 516.718 536.48 531.859 536.696 550.416C536.912 568.625 551.92 583.65 569.946 583.683C588.205 583.733 603.694 568.094 603.512 549.819H603.528Z" fill="url(#paint5_linear_2504_1350)"/>
<defs>
<filter id="filter0_dddi_2504_1350" x="42" y="-8" width="740" height="796" filterUnits="userSpaceOnUse" color-interpolation-filters="sRGB">
<feFlood flood-opacity="0" result="BackgroundImageFix"/>
<feColorMatrix in="SourceAlpha" type="matrix" values="0 0 0 0 0 0 0 0 0 0 0 0 0 0 0 0 0 0 127 0" result="hardAlpha"/>
<feOffset dy="0.5"/>
<feGaussianBlur stdDeviation="0.75"/>
<feComposite in2="hardAlpha" operator="out"/>
<feColorMatrix type="matrix" values="0 0 0 0 1 0 0 0 0 1 0 0 0 0 1 0 0 0 0.12 0"/>
<feBlend mode="normal" in2="BackgroundImageFix" result="effect1_dropShadow_2504_1350"/>
<feColorMatrix in="SourceAlpha" type="matrix" values="0 0 0 0 0 0 0 0 0 0 0 0 0 0 0 0 0 0 127 0" result="hardAlpha"/>
<feOffset dy="6"/>
<feGaussianBlur stdDeviation="3"/>
<feComposite in2="hardAlpha" operator="out"/>
<feColorMatrix type="matrix" values="0 0 0 0 1 0 0 0 0 1 0 0 0 0 1 0 0 0 0.06 0"/>
<feBlend mode="normal" in2="effect1_dropShadow_2504_1350" result="effect2_dropShadow_2504_1350"/>
<feColorMatrix in="SourceAlpha" type="matrix" values="0 0 0 0 0 0 0 0 0 0 0 0 0 0 0 0 0 0 127 0" result="hardAlpha"/>
<feOffset/>
<feComposite in2="hardAlpha" operator="out"/>
<feColorMatrix type="matrix" values="0 0 0 0 1 0 0 0 0 1 0 0 0 0 1 0 0 0 0.06 0"/>
<feBlend mode="normal" in2="effect2_dropShadow_2504_1350" result="effect3_dropShadow_2504_1350"/>
<feBlend mode="normal" in="SourceGraphic" in2="effect3_dropShadow_2504_1350" result="shape"/>
<feColorMatrix in="SourceAlpha" type="matrix" values="0 0 0 0 0 0 0 0 0 0 0 0 0 0 0 0 0 0 127 0" result="hardAlpha"/>
<feOffset dy="-56"/>
<feGaussianBlur stdDeviation="82"/>
<feComposite in2="hardAlpha" operator="arithmetic" k2="-1" k3="1"/>
<feColorMatrix type="matrix" values="0 0 0 0 0.771866 0 0 0 0 0.69171 0 0 0 0 1 0 0 0 0.24 0"/>
<feBlend mode="color-burn" in2="shape" result="effect4_innerShadow_2504_1350"/>
</filter>
<linearGradient id="paint0_linear_2504_1350" x1="270.5" y1="-76.5" x2="642" y2="1213" gradientUnits="userSpaceOnUse">
<stop stop-color="#F5ECFF"/>
<stop offset="0.697782" stop-color="#D7EEFF"/>
<stop offset="0.995" stop-color="#CFFFFF"/>
</linearGradient>
<radialGradient id="paint1_radial_2504_1350" cx="0" cy="0" r="1" gradientUnits="userSpaceOnUse" gradientTransform="translate(412 -129) rotate(90) scale(1202.5 2712.84)">
<stop stop-color="white" stop-opacity="0.7"/>
<stop offset="1" stop-color="white" stop-opacity="0"/>
</radialGradient>
<linearGradient id="paint2_linear_2504_1350" x1="146.001" y1="411.976" x2="677.574" y2="411.976" gradientUnits="userSpaceOnUse">
<stop stop-color="#1F41B1"/>
<stop offset="0.44" stop-color="#8C65FB"/>
<stop offset="1" stop-color="#3A8CF2"/>
</linearGradient>
<linearGradient id="paint3_linear_2504_1350" x1="163.165" y1="549.106" x2="659.912" y2="549.106" gradientUnits="userSpaceOnUse">
<stop stop-color="#1F41B1"/>
<stop offset="0.44" stop-color="#8C65FB"/>
<stop offset="1" stop-color="#3A8CF2"/>
</linearGradient>
<linearGradient id="paint4_linear_2504_1350" x1="209.831" y1="550.184" x2="296.697" y2="550.184" gradientUnits="userSpaceOnUse">
<stop stop-color="#1F41B1"/>
<stop offset="0.23" stop-color="#2242B3"/>
<stop offset="0.42" stop-color="#2C45B9"/>
<stop offset="0.59" stop-color="#3C4AC5"/>
<stop offset="0.75" stop-color="#5452D5"/>
<stop offset="0.9" stop-color="#725CE9"/>
<stop offset="1" stop-color="#8C65FB"/>
</linearGradient>
<linearGradient id="paint5_linear_2504_1350" x1="526.613" y1="550.201" x2="613.462" y2="550.201" gradientUnits="userSpaceOnUse">
<stop stop-color="#8C65FB"/>
<stop offset="0.05" stop-color="#7E6BF9"/>
<stop offset="0.17" stop-color="#6577F6"/>
<stop offset="0.31" stop-color="#5280F4"/>
<stop offset="0.46" stop-color="#4487F3"/>
<stop offset="0.65" stop-color="#3C8AF2"/>
<stop offset="1" stop-color="#3A8CF2"/>
</linearGradient>
</defs>
</svg>
