<svg width="824" height="824" viewBox="0 0 824 824" fill="none" xmlns="http://www.w3.org/2000/svg">
<rect width="824" height="824" rx="186" fill="url(#paint0_linear_2512_2077)"/>
<g style="mix-blend-mode:overlay">
<rect width="824" height="824" rx="186" fill="url(#paint1_radial_2512_2077)" fill-opacity="0.32"/>
</g>
<g style="mix-blend-mode:plus-darker" filter="url(#filter0_dddi_2512_2077)">
<rect x="48" y="48" width="728" height="728" rx="138" fill="white" fill-opacity="0.02" shape-rendering="crispEdges"/>
</g>
<path d="M527.024 272.51C522.758 346.745 567.598 423.697 634.038 456.224C678.913 478.185 705.392 526.156 699.074 574.002C692.072 626.996 655.746 666.507 604.661 676.119C574.078 681.879 546.519 672.843 520.814 657.057C447.948 612.253 375.243 612.397 302.233 656.823C264.414 679.845 225.029 685.3 184.383 664.293C125.125 633.674 104.911 555.407 140.876 498.562C152.63 479.967 168.399 466.376 187.767 456.656C256.566 422.113 300.469 346.799 295.375 270.836C292.261 224.341 311.881 189.006 349.701 164.561C386.134 141.016 425.537 140.494 464.472 159.467C497.323 175.451 533.486 217.825 527.024 272.546V272.51ZM245.279 458.042C191.763 458.618 150.47 490.335 139.058 534.113C127.465 578.538 147.23 625.934 187.515 648.902C226.577 671.187 264.486 665.697 301.369 642.998C309.775 637.832 317.767 631.766 326.66 627.662C360.231 612.199 395.926 609.715 432.179 612.289C464.058 614.557 493.975 622.586 520.31 642.044C528.59 648.164 538.581 652.34 548.301 656.067C603.473 677.199 665.737 646.184 682.459 589.572C699.488 531.971 664.423 473.073 605.687 460.454C571.54 453.11 542.199 464.414 514.064 482.541C503.12 489.597 491.149 495.681 478.837 499.858C446.166 510.964 412.307 511.306 378.411 507.508C351.573 504.502 326.732 496.149 304.267 480.201C284.7 466.304 262.542 458.06 245.261 458.06L245.279 458.042ZM411.083 403.806C388.348 423.337 363.471 466.719 362.085 489.399C395.224 498.148 428.237 498.526 461.394 488.931C454.248 457.664 431.819 419.863 411.083 403.806ZM584.662 445.946C585.202 445.118 585.742 444.308 586.264 443.48C585.598 442.58 585.076 441.554 584.266 440.816C566.014 424.399 551.973 404.67 540.129 383.376C522.11 350.939 509.87 317.08 513.758 278.864C514.856 268.01 513.722 256.67 512.012 245.797C503.047 188.448 447.534 150.088 390.508 161.393C334.814 172.427 298.669 230.209 312.097 286.335C320.864 322.984 346.046 344.693 377.763 361.469C390.832 368.381 403.702 376.698 414.485 386.706C441.035 411.367 458.712 442.256 471.871 475.809C473.113 478.977 474.517 482.073 475.831 485.205C476.821 484.989 477.811 484.773 478.801 484.539C478.531 481.821 478.927 478.815 477.901 476.403C473.077 465.134 468.396 453.74 462.69 442.922C441.666 403.122 414.035 369.695 371.913 350.471C365.973 347.753 360.429 343.991 355.119 340.138C310.927 307.935 302.125 247.039 335.156 203.1C367.179 160.511 427.391 152.806 470.322 186.089C500.041 209.13 509.492 240.757 507.458 276.866C503.75 342.731 533.972 394.41 576.184 440.996C578.272 443.3 581.764 444.308 584.59 445.928L584.662 445.946ZM409.894 316.63C439.289 317.08 463.248 293.841 463.662 264.464C464.094 235.051 441.053 211.236 411.533 210.588C382.462 209.94 358.089 233.611 357.765 262.844C357.423 292.455 380.428 316.198 409.894 316.648V316.63ZM236.387 443.282L237.611 445.478C240.581 444.002 244.253 443.21 246.431 440.96C278.292 408.127 300.397 369.677 311.719 325.252C312.439 322.444 311.125 319.132 310.765 316.054C309.973 316.054 309.199 316.072 308.407 316.09C296.995 365.645 272.91 407.983 236.405 443.282H236.387ZM346.172 484.863C359.349 451.094 377.079 420.151 401.524 392.358C387.178 390.432 339.836 470.103 346.172 484.863Z" fill="#042F1E"/>
<path d="M418.282 606.007C369.338 606.169 331.033 614.449 296.328 638.048C265.367 659.109 231.58 664.131 196.767 647.156C147.679 623.234 127.537 563.814 152.125 516.778C177.542 468.159 236.998 450.176 285.492 476.475C301.764 485.313 317.173 496.672 334.453 502.54C388.347 520.828 442.799 520.558 496.116 499.588C510.157 494.061 522.649 484.665 535.952 477.213C572.241 456.872 614.2 460.49 646.007 486.609C677.22 512.224 688.489 552.059 675.6 591.157C663.27 628.562 628.115 655.203 587.613 656.895C565.059 657.831 544.214 650.829 525.979 637.958C491.094 613.333 451.781 605.989 418.3 605.989L418.282 606.007ZM186.326 561.816C186.308 590.995 210.123 614.845 239.374 614.881C268.553 614.917 292.602 590.869 292.44 561.798C292.278 532.439 268.427 508.588 239.356 508.75C209.925 508.894 186.362 532.493 186.326 561.816ZM636.341 561.816C636.341 532.583 612.58 508.804 583.293 508.768C554.15 508.732 530.408 532.511 530.246 561.87C530.084 590.941 554.024 614.845 583.329 614.881C612.508 614.917 636.341 591.067 636.341 561.816Z" fill="#042F1E"/>
<path d="M457.669 263.708C457.615 289.701 436.95 310.564 411.083 310.744C384.892 310.942 363.724 289.899 363.598 263.582C363.49 238.003 384.766 216.547 410.291 216.493C436.644 216.439 457.723 237.445 457.651 263.69L457.669 263.708ZM374.056 263.978C374.164 283.851 391.264 300.789 410.867 300.447C430.434 300.105 446.868 283.473 446.85 264.068C446.814 244.177 429.822 227.329 410.075 227.635C390.544 227.941 373.948 244.681 374.056 263.978Z" fill="#042F1E"/>
<path d="M239.051 608.995C213.004 608.815 191.943 587.214 192.303 561.059C192.645 535.247 213.796 514.636 239.717 514.834C265.584 515.032 286.536 536.003 286.59 561.743C286.644 587.682 265.026 609.193 239.051 608.995ZM240.023 525.634C219.808 525.544 203.482 541.817 203.428 562.085C203.374 581.454 220.042 598.123 239.573 598.249C259.428 598.375 276.276 581.508 276.15 561.617C276.024 541.871 259.788 525.706 240.023 525.634Z" fill="#042F1E"/>
<path d="M583.402 514.834C609.143 514.744 630.222 535.679 630.402 561.491C630.564 587.574 609.161 609.139 583.204 609.031C557.59 608.923 536.349 587.79 536.133 562.175C535.899 536.183 557.121 514.924 583.402 514.816V514.834ZM619.619 561.527C619.421 541.763 603.185 525.634 583.456 525.616C563.206 525.598 546.843 542.033 547.077 562.175C547.311 581.94 563.602 598.249 583.168 598.285C602.987 598.339 619.799 581.364 619.601 561.527H619.619Z" fill="#042F1E"/>
<defs>
<filter id="filter0_dddi_2512_2077" x="42" y="-8" width="740" height="796" filterUnits="userSpaceOnUse" color-interpolation-filters="sRGB">
<feFlood flood-opacity="0" result="BackgroundImageFix"/>
<feColorMatrix in="SourceAlpha" type="matrix" values="0 0 0 0 0 0 0 0 0 0 0 0 0 0 0 0 0 0 127 0" result="hardAlpha"/>
<feOffset dy="0.5"/>
<feGaussianBlur stdDeviation="0.75"/>
<feComposite in2="hardAlpha" operator="out"/>
<feColorMatrix type="matrix" values="0 0 0 0 1 0 0 0 0 1 0 0 0 0 1 0 0 0 0.12 0"/>
<feBlend mode="normal" in2="BackgroundImageFix" result="effect1_dropShadow_2512_2077"/>
<feColorMatrix in="SourceAlpha" type="matrix" values="0 0 0 0 0 0 0 0 0 0 0 0 0 0 0 0 0 0 127 0" result="hardAlpha"/>
<feOffset dy="6"/>
<feGaussianBlur stdDeviation="3"/>
<feComposite in2="hardAlpha" operator="out"/>
<feColorMatrix type="matrix" values="0 0 0 0 1 0 0 0 0 1 0 0 0 0 1 0 0 0 0.06 0"/>
<feBlend mode="normal" in2="effect1_dropShadow_2512_2077" result="effect2_dropShadow_2512_2077"/>
<feColorMatrix in="SourceAlpha" type="matrix" values="0 0 0 0 0 0 0 0 0 0 0 0 0 0 0 0 0 0 127 0" result="hardAlpha"/>
<feOffset/>
<feComposite in2="hardAlpha" operator="out"/>
<feColorMatrix type="matrix" values="0 0 0 0 1 0 0 0 0 1 0 0 0 0 1 0 0 0 0.06 0"/>
<feBlend mode="normal" in2="effect2_dropShadow_2512_2077" result="effect3_dropShadow_2512_2077"/>
<feBlend mode="normal" in="SourceGraphic" in2="effect3_dropShadow_2512_2077" result="shape"/>
<feColorMatrix in="SourceAlpha" type="matrix" values="0 0 0 0 0 0 0 0 0 0 0 0 0 0 0 0 0 0 127 0" result="hardAlpha"/>
<feOffset dy="-56"/>
<feGaussianBlur stdDeviation="82"/>
<feComposite in2="hardAlpha" operator="arithmetic" k2="-1" k3="1"/>
<feColorMatrix type="matrix" values="0 0 0 0 0.458824 0 0 0 0 0.929412 0 0 0 0 0.65098 0 0 0 0.7 0"/>
<feBlend mode="color-burn" in2="shape" result="effect4_innerShadow_2512_2077"/>
</filter>
<linearGradient id="paint0_linear_2512_2077" x1="0" y1="824" x2="913.111" y2="709.281" gradientUnits="userSpaceOnUse">
<stop stop-color="#4ACF8C"/>
<stop offset="1" stop-color="#75EDA6"/>
</linearGradient>
<radialGradient id="paint1_radial_2512_2077" cx="0" cy="0" r="1" gradientUnits="userSpaceOnUse" gradientTransform="translate(412 -129) rotate(90) scale(1202.5 2712.84)">
<stop stop-color="white" stop-opacity="0.7"/>
<stop offset="1" stop-color="white" stop-opacity="0"/>
</radialGradient>
</defs>
</svg>
