<svg width="321" height="296" viewBox="0 0 321 296" fill="none" xmlns="http://www.w3.org/2000/svg">
<path d="M224.451 70.2812C222.081 111.521 246.991 154.271 283.901 172.341C308.831 184.541 323.541 211.191 320.031 237.771C316.141 267.211 295.961 289.161 267.581 294.501C250.591 297.701 235.281 292.681 221.001 283.911C180.521 259.021 140.131 259.101 99.5707 283.781C78.5607 296.571 56.6807 299.601 34.1007 287.931C1.18069 270.921 -10.0493 227.441 9.93069 195.861C16.4607 185.531 25.2207 177.981 35.9807 172.581C74.2007 153.391 98.5907 111.551 95.7607 69.3512C94.0307 43.5212 104.931 23.8912 125.941 10.3112C146.181 -2.76879 168.071 -3.05879 189.701 7.48121C207.951 16.3612 228.041 39.9012 224.451 70.3012V70.2812ZM67.9307 173.351C38.2007 173.671 15.2607 191.291 8.92068 215.611C2.48068 240.291 13.4607 266.621 35.8407 279.381C57.5407 291.761 78.6007 288.711 99.0907 276.101C103.761 273.231 108.201 269.861 113.141 267.581C131.791 258.991 151.621 257.611 171.761 259.041C189.471 260.301 206.091 264.761 220.721 275.571C225.321 278.971 230.871 281.291 236.271 283.361C266.921 295.101 301.511 277.871 310.801 246.421C320.261 214.421 300.781 181.701 268.151 174.691C249.181 170.611 232.881 176.891 217.251 186.961C211.171 190.881 204.521 194.261 197.681 196.581C179.531 202.751 160.721 202.941 141.891 200.831C126.981 199.161 113.181 194.521 100.701 185.661C89.8307 177.941 77.5207 173.361 67.9207 173.361L67.9307 173.351ZM160.041 143.221C147.411 154.071 133.591 178.171 132.821 190.771C151.231 195.631 169.571 195.841 187.991 190.511C184.021 173.141 171.561 152.141 160.041 143.221ZM256.471 166.631C256.771 166.171 257.071 165.721 257.361 165.261C256.991 164.761 256.701 164.191 256.251 163.781C246.111 154.661 238.311 143.701 231.731 131.871C221.721 113.851 214.921 95.0412 217.081 73.8112C217.691 67.7812 217.061 61.4812 216.111 55.4412C211.131 23.5812 180.291 2.27121 148.611 8.55121C117.671 14.6812 97.5907 46.7812 105.051 77.9612C109.921 98.3212 123.911 110.381 141.531 119.701C148.791 123.541 155.941 128.161 161.931 133.721C176.681 147.421 186.501 164.581 193.811 183.221C194.501 184.981 195.281 186.701 196.011 188.441C196.561 188.321 197.111 188.201 197.661 188.071C197.511 186.561 197.731 184.891 197.161 183.551C194.481 177.291 191.881 170.961 188.711 164.951C177.031 142.841 161.681 124.271 138.281 113.591C134.981 112.081 131.901 109.991 128.951 107.851C104.401 89.9612 99.5107 56.1312 117.861 31.7212C135.651 8.06121 169.101 3.7812 192.951 22.2712C209.461 35.0712 214.711 52.6412 213.581 72.7012C211.521 109.291 228.311 138.001 251.761 163.881C252.921 165.161 254.861 165.721 256.431 166.621L256.471 166.631ZM159.381 94.7912C175.711 95.0412 189.021 82.1312 189.251 65.8112C189.491 49.4712 176.691 36.2412 160.291 35.8812C144.141 35.5212 130.601 48.6712 130.421 64.9112C130.231 81.3612 143.011 94.5512 159.381 94.8012V94.7912ZM62.9907 165.151L63.6707 166.371C65.3207 165.551 67.3607 165.111 68.5707 163.861C86.2707 145.621 98.5507 124.261 104.841 99.5812C105.241 98.0212 104.511 96.1812 104.311 94.4712C103.871 94.4712 103.441 94.4812 103.001 94.4912C96.6607 122.021 83.2807 145.541 63.0007 165.151H62.9907ZM123.981 188.251C131.301 169.491 141.151 152.301 154.731 136.861C146.761 135.791 120.461 180.051 123.981 188.251Z" fill="white"/>
<path d="M164.041 255.551C136.851 255.641 115.571 260.241 96.2907 273.351C79.0907 285.051 60.3207 287.841 40.9807 278.411C13.7107 265.121 2.52068 232.111 16.1807 205.981C30.3007 178.971 63.3307 168.981 90.2707 183.591C99.3107 188.501 107.871 194.811 117.471 198.071C147.411 208.231 177.661 208.081 207.281 196.431C215.081 193.361 222.021 188.141 229.411 184.001C249.571 172.701 272.881 174.711 290.551 189.221C307.891 203.451 314.151 225.581 306.991 247.301C300.141 268.081 280.611 282.881 258.111 283.821C245.581 284.341 234.001 280.451 223.871 273.301C204.491 259.621 182.651 255.541 164.051 255.541L164.041 255.551ZM35.1807 231.001C35.1707 247.211 48.4007 260.461 64.6507 260.481C80.8607 260.501 94.2207 247.141 94.1307 230.991C94.0407 214.681 80.7907 201.431 64.6407 201.521C48.2907 201.601 35.2007 214.711 35.1807 231.001ZM285.181 231.001C285.181 214.761 271.981 201.551 255.711 201.531C239.521 201.511 226.331 214.721 226.241 231.031C226.151 247.181 239.451 260.461 255.731 260.481C271.941 260.501 285.181 247.251 285.181 231.001Z" fill="white"/>
<path d="M185.921 65.3912C185.891 79.8312 174.411 91.4212 160.041 91.5212C145.491 91.6312 133.731 79.9412 133.661 65.3212C133.601 51.1112 145.421 39.1912 159.601 39.1612C174.241 39.1312 185.951 50.8012 185.911 65.3812L185.921 65.3912ZM139.471 65.5412C139.531 76.5812 149.031 85.9912 159.921 85.8012C170.791 85.6112 179.921 76.3712 179.911 65.5912C179.891 54.5412 170.451 45.1812 159.481 45.3512C148.631 45.5212 139.411 54.8212 139.471 65.5412Z" fill="white"/>
<path d="M64.4707 257.211C50.0007 257.111 38.3007 245.111 38.5007 230.581C38.6907 216.241 50.4407 204.791 64.8407 204.901C79.2107 205.011 90.8507 216.661 90.8807 230.961C90.9107 245.371 78.9007 257.321 64.4707 257.211ZM65.0107 210.901C53.7807 210.851 44.7107 219.891 44.6807 231.151C44.6507 241.911 53.9107 251.171 64.7607 251.241C75.7907 251.311 85.1507 241.941 85.0807 230.891C85.0107 219.921 75.9907 210.941 65.0107 210.901Z" fill="white"/>
<path d="M255.771 204.901C270.071 204.851 281.781 216.481 281.881 230.821C281.971 245.311 270.081 257.291 255.661 257.231C241.431 257.171 229.631 245.431 229.511 231.201C229.381 216.761 241.171 204.951 255.771 204.891V204.901ZM275.891 230.841C275.781 219.861 266.761 210.901 255.801 210.891C244.551 210.881 235.461 220.011 235.591 231.201C235.721 242.181 244.771 251.241 255.641 251.261C266.651 251.291 275.991 241.861 275.881 230.841H275.891Z" fill="white"/>
</svg>
